<svg width="138" height="126" viewBox="0 0 138 126" fill="none" xmlns="http://www.w3.org/2000/svg">
<path d="M100.583 96.7446C95.1351 97.3649 89.6941 98.6464 84.1833 98.0328C78.2271 97.3697 72.1626 95.7651 66.4302 94.2097C60.1479 92.5051 54.0636 89.6779 49.4004 85.5245C45.8754 82.385 43.0058 78.4964 38.6459 76.1953C35.2016 74.3774 32.5823 71.6865 28.4513 71.6865C21.1297 71.6865 30.2451 81.9984 31.9039 84.0078C35.7377 88.6515 30.3858 83.695 29.3845 81.9923C27.8019 79.3015 25.9114 76.7173 24.6721 73.8474C24.1741 72.694 23.8452 72.4345 22.4559 72.4345C19.408 72.4345 18.5573 75.7442 18.3267 78.0029C17.9262 81.9275 20.1327 84.4962 22.8058 87.3946C23.5489 88.2003 26.6762 91.1327 24.1589 88.8906" stroke="#3A3A3A" stroke-linecap="round" stroke-linejoin="round"/>
<path d="M19.9598 76.5485C15.5355 79.4853 10.5581 84.8046 13.4978 90.1789C14.3133 91.6698 18.7247 94.1706 18.7 94.1266" stroke="#3A3A3A" stroke-linecap="round" stroke-linejoin="round"/>
<path d="M14.0809 91.8826C17.8224 97.5035 21.1972 101.573 26.6784 105.804C30.5829 108.818 35.0458 110.939 39.4624 113.284C43.4407 115.396 47.0643 118.016 51.4533 119.476C55.6771 120.88 60.6997 121.983 65.1239 122.738C74.6484 124.362 85.1596 126.252 94.8911 124.961C97.9035 124.561 119.06 119.947 119.06 118.437" stroke="#3A3A3A" stroke-linecap="round" stroke-linejoin="round"/>
<path d="M32.5573 74.3045C33.5342 75.5939 38.4969 84.4035 41.2821 80.2054C42.3969 78.5251 42.2153 76.627 42.2153 74.7616C42.2153 73.3988 40.8931 68.2322 43.5683 68.3205C50.8991 68.5623 50.6135 77.4412 50.6135 81.9092C50.6135 84.1674 48.9339 90.7748 48.9339 88.5166" stroke="#3A3A3A" stroke-linecap="round" stroke-linejoin="round"/>
<path d="M45.5746 82.9065C46.6944 84.4025 47.8141 85.8985 48.9339 87.3946" stroke="#3A3A3A" stroke-linecap="round" stroke-linejoin="round"/>
<path d="M50.1936 32.4162C46.6919 35.7111 43.2975 38.7993 39.2292 41.5169C37.4478 42.7069 35.4969 43.8043 33.8403 45.1323C32.8501 45.926 30.4601 46.3098 30.9709 47.7503C32.2227 51.281 36.6673 53.6467 40.5822 53.298C46.0515 52.8109 52.2502 49.6586 56.0724 46.2543" stroke="#3A3A3A" stroke-linecap="round" stroke-linejoin="round"/>
<path d="M61.1113 53.7344C64.6103 52.4769 69.6384 51.4238 71.5625 48.1867C71.8439 47.7133 72.1639 47.0023 72.449 47.0023" stroke="#3A3A3A" stroke-linecap="round" stroke-linejoin="round"/>
<path d="M80.4275 47.0023C82.1755 48.1268 84.1579 49.89 86.3063 50.3683" stroke="#3A3A3A" stroke-linecap="round" stroke-linejoin="round"/>
<path d="M82.947 54.4823C80.804 54.2147 77.5053 53.2808 75.4818 54.4823C75.0325 54.7491 74.6519 55.3785 75.4352 55.5212C78.4423 56.069 81.6092 55.2303 84.6266 55.2303" stroke="#3A3A3A" stroke-linecap="round" stroke-linejoin="round"/>
<path d="M52.7131 33.1643C55.9923 30.9282 59.2966 28.2258 63.6076 27.9698C66.7358 27.7841 69.9604 27.9018 73.079 28.136C77.625 28.4775 81.9919 28.8342 85.4665 31.6475C88.8213 34.3639 91.7465 35.0052 95.5911 36.7173C97.5666 37.5971 103.854 37.3814 104.689 39.1483C105.518 40.9025 101.555 43.0475 100.257 43.5532C97.8637 44.4857 94.7466 44.0104 92.1851 44.0104" stroke="#3A3A3A" stroke-linecap="round" stroke-linejoin="round"/>
<path d="M71.1894 48.4982C70.3575 44.4972 68.9024 40.2496 63.3976 41.4753C61.0645 41.9948 59.9173 44.8091 59.1052 46.5451C58.6125 47.5981 57.0826 50.8638 57.9387 51.9474C59.0442 53.3466 62.3712 54.8804 62.3712 52.2383" stroke="#3A3A3A" stroke-linecap="round" stroke-linejoin="round"/>
<path d="M61.9512 42.8883C63.7227 45.5281 66.4973 48.3793 68.1566 44.0934C68.6173 42.9034 67.1583 42.2747 66.1503 41.8494C64.945 41.3409 64.9061 43.3307 64.8906 43.9272C64.8264 46.3838 66.2592 43.5751 66.057 42.5143C65.6013 40.1239 63.0991 41.1318 62.5577 42.8052C62.2004 43.9098 63.3907 46.676 64.9839 45.257C65.8942 44.4462 67.049 40.748 64.4707 41.5585C62.4742 42.1861 61.3991 45.6744 63.2109 46.9192C65.7989 48.6974 67.2321 44.8858 66.8035 43.1792C66.1405 40.5392 63.9064 41.2949 63.7241 43.5948C63.5617 45.645 65.68 49.4589 67.9699 46.5452C69.3811 44.7497 68.7794 41.066 65.5904 41.9325C62.9368 42.6536 64.1341 46.559 66.057 47.3763C68.4535 48.3951 69.7329 45.5456 68.8098 43.8025C67.6658 41.6425 65.5335 44.0127 65.8237 45.5063C66.1983 47.434 68.3275 48.0725 69.9296 47.0023" stroke="#3A3A3A" stroke-linecap="round" stroke-linejoin="round"/>
<path d="M79.1677 47.7502C79.2815 47.8293 83.9655 51.1999 84.1367 50.5137C84.2926 49.8887 83.2161 49.378 82.7603 49.1631C81.0915 48.3762 78.8275 47.3071 78.3279 45.527C77.6219 43.012 81.7977 39.9029 84.6266 39.5429C87.5327 39.1732 89.2456 42.8233 89.2456 44.7582C89.2456 49.2604 85.3402 47.4885 82.9469 49.6202" stroke="#3A3A3A" stroke-linecap="round" stroke-linejoin="round"/>
<path d="M84.6266 40.6443C84.9085 42.2989 85.9231 46.9764 86.4928 45.3817C87.3113 43.0909 85.8752 41.0574 83.3668 40.4989C77.7952 39.2583 80.243 47.767 84.6032 45.631C89.4713 43.2463 82.6385 38.7131 82.9702 42.7014C83.3536 47.3111 89.4829 43.6129 85.4897 39.834C83.3457 37.805 83.0309 46.9282 86.2129 44.9661C88.8434 43.3441 82.7141 38.6725 83.88 43.3455C85.1137 48.2898 88.451 41.3991 85.8863 41.0183C84.7187 40.845 85.638 47.113 89.2456 45.5064" stroke="#3A3A3A" stroke-linecap="round" stroke-linejoin="round"/>
<path d="M92.605 45.1323C92.605 49.2965 92.8073 52.755 93.7714 56.7264C94.0954 58.0611 93.8507 59.7294 92.9316 60.8404C89.3935 65.117 84.1484 65.8241 78.7478 67.1984" stroke="#3A3A3A" stroke-linecap="round" stroke-linejoin="round"/>
<path d="M73.2888 62.7104C76.4727 61.1402 79.9427 60.1149 80.4041 56.6224C80.5335 55.6428 80.4274 56.7211 80.4274 57.1003C80.4274 58.7964 81.139 61.1572 82.9469 61.9624" stroke="#3A3A3A" stroke-linecap="round" stroke-linejoin="round"/>
<path d="M63.2109 64.2065C67.6322 65.3036 73.088 67.5016 77.488 66.0765" stroke="#3A3A3A" stroke-linecap="round" stroke-linejoin="round"/>
<path d="M44.3147 53.7343C40.4908 57.2476 37.8685 58.432 32.8137 59.7184C30.3958 60.3336 27.8393 60.8744 25.5585 61.8377C22.3385 63.1978 17.3588 66.6678 16.1804 69.8164" stroke="#3A3A3A" stroke-linecap="round" stroke-linejoin="round"/>
<path d="M68.25 79.9145C72.5447 79.9145 77.8649 78.9444 80.6375 82.5949C82.8122 85.4581 84.0186 91.0205 82.2471 94.2513C81.1607 96.2327 77.7234 98.6728 75.0619 98.1575C73.3104 97.8184 73.2194 95.749 72.8691 94.5006" stroke="#3A3A3A" stroke-linecap="round" stroke-linejoin="round"/>
<path d="M86.7263 81.4105C91.1099 82.7902 95.9142 84.176 96.3376 88.8905C96.5589 91.3541 95.5847 94.5518 92.3484 94.833C86.1761 95.3694 85.1927 91.4666 88.8258 87.7685" stroke="#3A3A3A" stroke-linecap="round" stroke-linejoin="round"/>
<path d="M48.0941 67.5724C55.9319 69.6032 59.4811 71.619 59.4318 79.0833C59.4183 81.1247 59.2473 85.6889 57.7522 87.0205" stroke="#3A3A3A" stroke-linecap="round" stroke-linejoin="round"/>
<path d="M12.8212 77.2965C8.12789 83.2829 6.26821 88.8372 7.26902 96.0797C7.81277 100.015 7.66697 103.93 3.39648 105.908C1.25883 106.898 -0.513732 108.443 2.97657 108.692C9.38141 109.148 12.9382 105.673 15.3407 100.859" stroke="#3A3A3A" stroke-linecap="round" stroke-linejoin="round"/>
<path d="M36.3364 75.4265C38.9198 71.5917 41.0142 67.8769 42.9617 63.7909C43.7743 62.0861 44.9161 60.5528 46.5077 59.3444C48.2027 58.0574 50.5502 57.8484 52.7131 57.8484C54.3746 57.8484 55.5978 59.7862 56.259 61.0482C57.6045 63.6161 54.6047 66.7283 53.133 68.6945" stroke="#3A3A3A" stroke-linecap="round" stroke-linejoin="round"/>
<path d="M48.0941 66.4504C48.1468 66.3814 53.4938 58.7134 53.9496 62.7727C54.2104 65.0955 51.84 66.8244 49.3539 66.8244" stroke="#3A3A3A" stroke-linecap="round" stroke-linejoin="round"/>
<path d="M39.6957 39.5222C33.3619 39.1331 23.2386 38.4501 18.77 43.8232C17.7 45.1097 16.4605 47.043 18.8866 47.0022C20.6173 46.9731 22.0654 46.5632 23.6456 45.9633C26.1419 45.0157 24.1661 45.6481 22.8991 46.275C19.5314 47.9414 14.4433 52.389 14.9907 56.2899C15.2907 58.4276 24.3452 51.4613 25.232 50.9085C26.8952 49.8715 24.1276 51.8892 23.8789 52.1136C22.2807 53.5558 20.7404 55.2112 19.7964 57.0795C18.136 60.3659 24.8432 58.0512 25.7452 57.5574C27.4437 56.6277 33.2002 54.6341 33.8169 52.9863" stroke="#3A3A3A" stroke-linecap="round" stroke-linejoin="round"/>
<path d="M94.7046 49.6204C103.92 51.5029 117.958 52.6061 124.822 59.2821C128.574 62.9316 130.161 68.1453 131.657 72.8085" stroke="#3A3A3A" stroke-linecap="round" stroke-linejoin="round"/>
<path d="M87.9858 66.0764C96.7176 70.122 102.75 73.4856 105.552 82.1377C106.475 84.9868 107.302 88.14 107.302 91.1345" stroke="#3A3A3A" stroke-linecap="round" stroke-linejoin="round"/>
<path d="M81.2672 67.1985C83.2647 71.2076 86.6788 76.2166 82.527 79.9146" stroke="#3A3A3A" stroke-linecap="round" stroke-linejoin="round"/>
<path d="M84.6266 1C90.2078 10.5426 97.043 19.1756 109.798 21.113C116.674 22.1575 125.847 22.1228 132.077 18.9521" stroke="#3A3A3A" stroke-linecap="round" stroke-linejoin="round"/>
<path d="M131.237 34.2863C126.797 38.0815 122.305 41.6404 119.573 46.6283C117.443 50.5167 116.495 54.6698 115.607 58.8873C114.201 65.5652 112.384 72.4236 110.475 79.0003C108.996 84.0936 106.416 89.9376 102.403 93.9188C100.41 95.8965 97.3945 98.9128 94.7046 100.111" stroke="#3A3A3A" stroke-linecap="round" stroke-linejoin="round"/>
<path d="M137.116 92.6305C132.229 100.927 127.455 108.54 119.479 114.697" stroke="#3A3A3A" stroke-linecap="round" stroke-linejoin="round"/>
</svg>
