<svg width="152" height="124" viewBox="0 0 152 124" fill="none" xmlns="http://www.w3.org/2000/svg">
<path d="M13.0228 87.645C15.3129 88.7214 17.603 89.7977 19.8931 90.874" stroke="#3A3A3A" stroke-linecap="round" stroke-linejoin="round"/>
<path d="M30.1984 92.4886C32.4872 92.1078 34.7758 91.749 37.0686 91.4122" stroke="#3A3A3A" stroke-linecap="round" stroke-linejoin="round"/>
<path d="M54.8168 98.4083C49.2358 100.207 44.3475 101.425 38.5685 102.038C35.8149 102.329 33.0668 102.76 30.6578 104.112C28.5255 105.308 22.2108 110.32 24.3293 113.444C26.0054 115.916 30.1435 115.002 32.6669 114.528" stroke="#3A3A3A" stroke-linecap="round" stroke-linejoin="round"/>
<path d="M31.9161 110.248C30.4824 111.741 24.9737 116.168 29.948 116.168" stroke="#3A3A3A" stroke-linecap="round" stroke-linejoin="round"/>
<path d="M35.3511 112.624C41.2771 115.259 44.4595 114.913 50.5132 113.273C52.5897 112.711 58.817 111.324 56.6586 111.324" stroke="#3A3A3A" stroke-linecap="round" stroke-linejoin="round"/>
<path d="M2.00448 93.0267C1.21351 97.9431 -0.826372 104.293 4.9262 107.378C7.62387 108.824 10.3706 109.172 13.4305 109.172C16.6489 109.172 17.0305 109.09 17.0305 106.198" stroke="#3A3A3A" stroke-linecap="round" stroke-linejoin="round"/>
<path d="M7.29773 102.176C7.92365 102.678 13.7226 107.966 14.168 107.532" stroke="#3A3A3A" stroke-linecap="round" stroke-linejoin="round"/>
<path d="M11.8779 101.637C13.8365 103.385 15.4307 105.07 17.0306 107.019" stroke="#3A3A3A" stroke-linecap="round" stroke-linejoin="round"/>
<path d="M10.1603 93.0267C13.208 97.41 16.458 101.557 16.458 107.019" stroke="#3A3A3A" stroke-linecap="round" stroke-linejoin="round"/>
<path d="M19.3206 98.4083C21.2095 98.7186 23.2821 98.9465 25.0457 98.9465" stroke="#3A3A3A" stroke-linecap="round" stroke-linejoin="round"/>
<path d="M19.8931 97.9039C29.6897 100.54 23.0262 95.51 20.1535 98.0957C19.4372 98.7406 23.8994 100.514 24.5817 98.6712" stroke="#3A3A3A" stroke-linecap="round" stroke-linejoin="round"/>
<path d="M14.1679 71.5C11.3623 73.9939 8.61748 76.8827 5.43626 79.028C4.7242 79.5081 0.700242 81.1965 1.01782 82.1139C1.59545 83.7827 10.1241 85.8431 10.8541 84.5453" stroke="#3A3A3A" stroke-linecap="round" stroke-linejoin="round"/>
<path d="M13.5953 73.1145C21.8099 64.4512 30.0773 58.3013 41.3857 53.3368C51.0127 49.1105 60.852 47.234 71.4198 46.7443" stroke="#3A3A3A" stroke-linecap="round" stroke-linejoin="round"/>
<path d="M68.8863 47.5067C80.7734 45.1346 91.801 43.8805 103.948 44.0726C112.336 44.2053 120.445 47.8952 128.302 50.2968C134.65 52.2374 144.478 54.3254 148.362 59.955C152.162 65.4629 151.176 74.3573 149.614 80.2968C147.665 87.7128 141.247 94.9453 134.997 99.7086C126.307 106.331 115.311 111.517 104.868 115.233C89.6268 120.657 72.795 122.626 56.5689 122.626C50.8276 122.626 42.8055 119.065 44.0725 112.562C44.3631 111.071 47.124 109.235 48.3913 108.365C50.8424 106.683 53.9288 105.788 56.9522 105.456C67.7178 104.274 78.458 103.8 89.2281 102.785C97.3745 102.017 105.564 99.6416 113.326 97.2762C122.047 94.619 134.062 90.6093 139.725 83.5639" stroke="#3A3A3A" stroke-linecap="round" stroke-linejoin="round"/>
<path d="M101.191 57.5076C93.5077 57.5076 87.7093 57.7334 81.3435 62.0417C76.7596 65.1441 73.0242 70.1548 71.6743 75.3338C69.3528 84.2407 72.2952 93.2089 82.4122 95.6419C82.9851 95.7796 86.7536 96.1668 84.2443 96.1668C80.0805 96.1668 76.1409 96.5036 72.1323 97.6703C67.4737 99.0262 61.3114 99.294 59.9695 104.328" stroke="#3A3A3A" stroke-linecap="round" stroke-linejoin="round"/>
<path d="M53.0991 99.4846C55.8069 98.3782 58.6366 97.5249 60.7029 95.333C61.3681 94.6274 61.8233 93.6055 62.5914 93.0266C63.8934 92.0453 66.9455 91.2413 67.4121 89.7976" stroke="#3A3A3A" stroke-linecap="round" stroke-linejoin="round"/>
<path d="M15.313 104.866C19.3244 106.261 23.1077 108.704 26.1909 105.27" stroke="#3A3A3A" stroke-linecap="round" stroke-linejoin="round"/>
<path d="M14.7405 103.587C19.3476 106.114 22.005 106.67 21.897 100.866C21.8583 98.786 21.4497 99.2714 21.4497 100.892C21.4497 104.74 28.0765 106.189 29.0535 102.227" stroke="#3A3A3A" stroke-linecap="round" stroke-linejoin="round"/>
<path d="M2.71753 94.1031C6.02486 90.6062 9.14869 87.0913 13.5954 84.9542" stroke="#3A3A3A" stroke-linecap="round" stroke-linejoin="round"/>
<path d="M14.1679 80.6489C12.0345 85.2879 10.4782 89.6469 10.1603 94.6413" stroke="#3A3A3A" stroke-linecap="round" stroke-linejoin="round"/>
<path d="M38.7863 81.6989C43.4505 82.2419 50.5957 82.1753 54.0782 85.8634C55.7598 87.6442 57.1069 85.6857 57.1069 84.0414C57.1069 76.9936 53.4869 72.307 47.2763 69.3474" stroke="#3A3A3A" stroke-linecap="round" stroke-linejoin="round"/>
<path d="M74.2824 1C64.9002 10.2104 54.5751 17.7892 41.7674 22.138C32.4173 25.3127 22.3425 28.0853 12.5382 29.635C12.1801 29.6916 3.69856 30.6131 3.86497 30.9515C4.37209 31.983 6.13521 31.6098 7.03624 31.6098C13.618 31.6098 20.0696 31.4697 26.4841 29.8178C32.1711 28.3533 37.2852 25.3228 42.4551 22.7231C48.2567 19.8058 54.3081 17.3824 60.1072 14.4581C64.2118 12.3882 71.0256 9.78051 72.9069 5.27879" stroke="#3A3A3A" stroke-linecap="round" stroke-linejoin="round"/>
<path d="M76.5725 1C82.0074 5.56435 87.4703 10.0214 93.8819 13.3217C99.3011 16.1113 105.304 17.5673 111.305 18.7035C117.867 19.9455 124.513 20.4071 130.897 22.3819C133.339 23.1371 135.83 23.7638 138.335 24.3026C139.203 24.4894 140.055 24.4838 140.941 24.4838C141.422 24.4838 142.602 24.0913 142.386 24.5019C141.82 25.5799 135.692 25.6682 134.702 25.716C127.867 26.0457 121.733 24.2821 115.414 22.0195C108.76 19.6369 102.206 16.9567 95.822 13.9741C90.1001 11.3005 85.0184 8.25393 81.3659 3.28315" stroke="#3A3A3A" stroke-linecap="round" stroke-linejoin="round"/>
</svg>
