<svg width="176" height="33" viewBox="0 0 176 33" fill="none" xmlns="http://www.w3.org/2000/svg">
<path d="M31.8044 30.6149C31.8044 31.9463 30.7484 32.9924 29.4044 32.9924H5.40438C4.06038 32.9924 3.00438 31.9463 3.00438 30.6149V11.1192C3.00438 9.78781 4.06038 8.7417 5.40438 8.7417H29.4044C30.7484 8.7417 31.8044 9.78781 31.8044 11.1192V30.6149Z" fill="white"/>
<path d="M20.4764 0.610474L35.5484 9.64506C36.3644 10.1206 36.0284 11.5946 35.0684 11.5946H0.940387C-0.0196131 11.5946 -0.355613 10.1206 0.460387 9.64506L15.3404 0.753125C16.9244 -0.150333 18.8924 -0.292984 20.4764 0.610474Z" fill="white"/>
<path d="M18.7963 13.5719C18.5083 15.474 19.5643 16.9956 21.0523 17.2333C22.5403 17.4711 23.8363 16.3299 24.1243 14.4279C24.4123 12.5258 23.4523 10.1008 22.0123 10.0057C20.3323 9.81546 19.0843 11.6699 18.7963 13.5719Z" fill="#272727"/>
<path d="M24.1724 18.1367C23.5964 19.4206 24.2204 20.5143 25.3244 20.752C26.4284 20.9898 27.7244 20.1814 28.0124 18.8025C28.3004 17.4235 28.0604 16.0921 27.0524 15.8068C26.0924 15.569 24.7004 16.948 24.1724 18.1367Z" fill="#272727"/>
<path d="M11.9324 18.1367C12.5084 19.4206 11.8844 20.5143 10.7804 20.752C9.67636 20.9898 8.38036 20.1814 8.09236 18.8025C7.80436 17.4235 8.04436 16.0921 9.05236 15.8068C10.0124 15.569 11.4044 16.948 11.9324 18.1367Z" fill="#272727"/>
<path d="M17.6924 13.5719C17.9804 15.474 16.9244 16.9956 15.4364 17.2333C13.9484 17.4711 12.6524 16.3299 12.3644 14.4279C12.0764 12.5258 13.0364 10.1008 14.4764 10.0057C16.2044 9.81546 17.4524 11.6699 17.6924 13.5719Z" fill="#272727"/>
<path d="M18.5564 18.5649C22.2524 18.5649 27.7244 25.9828 26.2844 27.552C24.8444 29.1211 20.4764 26.7912 18.6524 26.7912C16.8284 26.7912 13.1804 29.2162 11.0204 27.8848C8.86036 26.5534 14.7164 18.5649 18.5564 18.5649Z" fill="#272727"/>
<path d="M47 25.1599H47.8093C49.8325 22.5972 51.2487 18.0787 52.058 12.6836H58.2624V25.1599H59.9484V30.7574H58.1275V26.8459H48.8209V30.7574H47V25.1599ZM56.4415 14.2347H53.6765C53.0021 19.2252 51.451 22.9344 50.0348 25.0924V25.1599H56.4415V14.2347Z" fill="white" stroke="white" stroke-miterlimit="10"/>
<path d="M67.7713 25.6997C67.0295 26.4415 66.0179 26.9811 64.7366 26.9811C62.8483 26.9811 61.4995 25.7671 61.4995 23.8114C61.4995 22.4626 62.1739 21.5859 63.1855 21.0464C63.8598 20.7092 64.7366 20.5743 65.7481 20.5069L67.6365 20.4394V19.8999C67.6365 18.4837 66.7597 17.8767 65.5458 17.8767C64.3994 17.8767 63.5226 18.2139 62.7808 18.686L62.1064 17.4047C63.2529 16.7303 64.6017 16.3931 65.7481 16.3931C68.0411 16.3931 69.5248 17.4721 69.5248 19.8999V23.6091C69.5248 25.3625 69.5922 26.2392 69.7271 26.7787H68.1085L67.7713 25.6997ZM66.0179 21.9231C65.2086 21.9231 64.6691 22.058 64.2645 22.2603C63.725 22.5301 63.4552 23.0696 63.4552 23.6765C63.4552 24.7556 64.1296 25.4299 65.2086 25.4299C66.3551 25.4299 67.2318 24.7556 67.7039 24.2835V21.8557L66.0179 21.9231Z" fill="white" stroke="white" stroke-miterlimit="10"/>
<path d="M72.2898 16.6627H74.1781V22.0578C74.1781 22.8671 74.1106 23.474 74.1106 24.1484H74.1781C74.5153 23.5415 74.9873 22.9345 75.5943 22.0578L79.3035 16.7301H81.1243V26.846H79.236V21.4509C79.236 20.6416 79.236 20.0346 79.3035 19.3602H79.236C78.8988 19.9672 78.4942 20.5741 77.8872 21.4509L74.1106 26.7786H72.2898V16.6627ZM73.4362 11.9419H75.0548C75.0548 12.886 75.5269 13.7628 76.7408 13.7628C77.9547 13.7628 78.4267 12.886 78.4267 11.9419H80.0453C80.1127 13.7628 78.8988 15.179 76.7408 15.179C74.5827 15.179 73.3688 13.7628 73.4362 11.9419Z" fill="white" stroke="white" stroke-miterlimit="10"/>
<path d="M87.4637 26.9134V25.2274C87.5985 25.2948 87.7334 25.2948 87.7334 25.2948C88.2055 25.2948 88.5427 25.0251 88.8799 24.4856C89.6892 23.2717 90.5659 20.3043 90.9705 16.6626H96.568V26.7785H94.6797V18.2811H92.5216C92.117 21.5182 91.2403 24.4181 90.2287 25.7669C89.6217 26.5762 88.9473 26.9134 87.9357 26.9134C87.8683 26.9808 87.5985 26.9134 87.4637 26.9134Z" fill="white" stroke="white" stroke-miterlimit="10"/>
<path d="M105.2 25.6997C104.458 26.4415 103.447 26.9811 102.165 26.9811C100.277 26.9811 98.9284 25.7671 98.9284 23.8114C98.9284 22.4626 99.6028 21.5859 100.614 21.0464C101.289 20.7092 102.165 20.5743 103.177 20.5069L105.065 20.4394V19.8999C105.065 18.4837 104.189 17.8767 102.975 17.8767C101.828 17.8767 100.952 18.2139 100.21 18.686L99.5353 17.4047C100.682 16.7303 102.031 16.3931 103.177 16.3931C105.47 16.3931 106.954 17.4721 106.954 19.8999V23.6091C106.954 25.3625 107.021 26.2392 107.156 26.7787H105.537L105.2 25.6997ZM103.379 21.9231C102.57 21.9231 102.031 22.058 101.626 22.2603C101.086 22.5301 100.817 23.0696 100.817 23.6765C100.817 24.7556 101.491 25.4299 102.57 25.4299C103.717 25.4299 104.593 24.7556 105.065 24.2835V21.8557L103.379 21.9231Z" fill="white" stroke="white" stroke-miterlimit="10"/>
<path d="M109.651 16.6626H117.879V26.7785H115.991V18.3486H111.54V26.7785H109.651V16.6626Z" fill="white" stroke="white" stroke-miterlimit="10"/>
<path d="M125.702 27.4529C124.286 31.2969 122.734 31.9039 120.981 31.9039C120.239 31.9039 119.565 31.769 119.025 31.4993L119.497 29.9482C119.902 30.1505 120.374 30.2854 120.981 30.2854C122.262 30.2854 123.274 29.4086 124.083 26.8459L119.565 16.73H121.588L124.892 24.6204H124.96L127.59 16.6626H129.546L125.702 27.4529Z" fill="white" stroke="white" stroke-miterlimit="10"/>
<path d="M131.569 26.104C131.569 25.6319 131.502 25.1599 131.434 24.6878L133.255 24.3506C133.39 24.8227 133.39 25.2947 133.39 25.6994C133.39 27.183 132.85 28.5318 131.569 29.8806L130.557 29.3411C131.299 28.1272 131.569 27.1156 131.569 26.104Z" fill="white" stroke="white" stroke-miterlimit="10"/>
<path d="M146.001 16.865C146.068 16.3929 146.068 15.8534 146.001 15.3813C145.866 14.5046 145.327 13.8976 144.45 13.493C143.776 13.1558 143.303 13.0209 142.629 12.8186C142.09 12.6163 141.685 12.3465 141.483 11.8745C141.213 11.3349 141.28 10.5931 141.415 10.6605C141.685 10.8629 142.224 11.0652 143.101 11.3349C144.45 11.807 145.394 12.5488 146.136 13.8302C147.013 15.179 147.417 16.7975 147.485 18.4161C147.485 21.1811 146.271 23.6763 144.922 24.9577C144.113 25.767 142.831 26.4414 141.685 26.4414C139.797 26.4414 138.987 24.7554 138.987 23.0694C138.987 20.3044 140.606 18.2138 142.224 17.2696C143.101 16.7975 144.045 16.4603 144.585 16.4603C145.057 16.4603 145.596 16.5278 146.001 16.865ZM142.966 17.6068C142.292 17.944 140.741 19.4277 140.673 22.7322C140.673 24.2159 141.28 25.4298 142.292 25.4298C142.562 25.4298 142.966 25.3623 143.303 25.16C144.248 24.4856 145.529 22.3276 145.731 18.6184C145.731 18.2812 145.664 18.0114 145.462 17.8091C145.057 17.4045 144.45 17.2696 144.113 17.2696C143.708 17.2696 143.371 17.4045 142.966 17.6068Z" fill="white" stroke="white" stroke-miterlimit="10"/>
<path d="M152.61 16.6625C153.217 16.4602 154.026 16.3928 154.633 16.3928C156.859 16.3928 157.736 17.4718 157.736 19.3601C157.736 20.7764 157.129 22.3949 155.915 23.8111C154.836 25.025 153.285 25.9692 151.868 26.3064C151.531 26.3064 150.992 26.2389 150.587 26.1041L149.98 29.1388C149.71 30.3527 149.845 30.5551 150.924 30.6899L151.464 30.7574L151.396 31.2969L146.406 31.5667L146.473 31.0271C147.822 30.7574 148.092 30.6225 148.361 29.2737C149.171 25.4971 149.98 21.7205 150.789 18.0113C150.115 18.2137 149.508 18.5509 149.036 18.8206L148.901 18.2811C149.508 17.8765 150.25 17.4718 150.992 17.2021L151.261 16.2579C151.666 15.7858 152.34 15.3138 152.812 14.9766L153.015 15.1114L152.61 16.6625ZM150.924 24.6878C151.194 25.025 151.733 25.4297 152.273 25.4297C153.824 25.4297 155.915 22.5298 155.915 19.7648C155.915 17.8765 154.903 17.3369 153.622 17.3369C153.285 17.3369 152.812 17.4044 152.408 17.4718L150.924 24.6878Z" fill="white" stroke="white" stroke-miterlimit="10"/>
<path d="M163.468 24.4184C164.345 23.0696 166.165 20.0349 166.233 18.4163C166.233 18.0117 166.098 17.6745 166.031 17.4047C165.896 16.9326 166.435 16.3257 166.975 16.3257C167.379 16.3257 167.784 16.7303 167.851 17.5396C167.851 18.0791 167.582 18.7535 167.11 19.8325C166.098 21.7208 164.277 24.5533 163.198 26.1718C162.254 27.5881 161.647 28.4648 160.635 29.6787C159.421 31.1624 158.612 31.7019 158.14 31.7019C157.668 31.7019 157.263 31.0949 157.263 30.5554C157.263 30.2856 157.398 30.0159 157.668 30.0159C158.747 29.9484 159.489 29.6112 160.298 28.802C161.107 27.9927 161.714 27.2509 162.187 26.3742C162.187 24.5533 161.647 20.6418 161.377 19.4953C161.107 18.3489 161.04 18.0117 160.77 18.0117C160.568 18.0117 160.163 18.3489 159.624 19.0907L159.219 18.6861C159.894 17.6745 160.905 16.3931 161.714 16.3931C162.254 16.3931 162.591 17.2024 162.861 18.7535C162.928 20.2372 163.198 22.3278 163.468 24.4184Z" fill="white" stroke="white" stroke-miterlimit="10"/>
<path d="M169.74 18.1465C170.347 17.4721 171.628 16.3931 173.044 16.3931C174.258 16.3931 175 17.2023 175 18.2139C175 19.5627 174.056 20.1022 172.775 20.9115L171.763 21.5859C170.684 22.2603 169.942 22.8672 169.942 23.744C169.942 24.5532 170.482 25.1602 171.358 25.1602C172.168 25.1602 172.977 24.6881 173.719 24.0137L174.056 24.4858C173.247 25.4299 171.763 26.3067 170.482 26.3067C168.863 26.3067 168.121 25.1602 168.121 24.216C168.121 22.9347 169.065 22.2603 170.212 21.5185L171.493 20.7092C172.572 20.0348 173.247 19.4278 173.247 18.5511C173.247 17.9442 172.909 17.4721 172.235 17.4721C171.426 17.4721 170.616 18.0791 170.077 18.6186L169.74 18.1465Z" fill="white" stroke="white" stroke-miterlimit="10"/>
</svg>
