<svg width="35" height="35" viewBox="0 0 35 35" fill="none" xmlns="http://www.w3.org/2000/svg">
<circle cx="17.5" cy="17.5" r="17.5" fill="white"/>
<path d="M22.516 13.518C23.1586 13.518 23.6795 12.9971 23.6795 12.3545C23.6795 11.7119 23.1586 11.1909 22.516 11.1909C21.8734 11.1909 21.3524 11.7119 21.3524 12.3545C21.3524 12.9971 21.8734 13.518 22.516 13.518Z" fill="#272727"/>
<path d="M17.474 12.665C14.8366 12.665 12.7422 14.7594 12.7422 17.3968C12.7422 20.0341 14.8366 22.1285 17.474 22.1285C20.1113 22.1285 22.2057 20.0341 22.2057 17.3968C22.2833 14.837 20.1113 12.665 17.474 12.665ZM17.474 20.4996C15.7674 20.4996 14.4488 19.1033 14.4488 17.4743C14.4488 15.7678 15.845 14.4491 17.474 14.4491C19.1805 14.4491 20.4992 15.8454 20.4992 17.4743C20.5767 19.1033 19.1805 20.4996 17.474 20.4996Z" fill="#272727"/>
<path d="M21.2749 27.0926H13.5955C10.4151 27.0926 7.77778 24.4553 7.77778 21.2749V13.5955C7.77778 10.4152 10.4151 7.77783 13.5955 7.77783H21.2749C24.4552 7.77783 27.0926 10.4152 27.0926 13.5955V21.2749C27.0926 24.5329 24.4552 27.0926 21.2749 27.0926ZM13.5955 9.6395C11.4235 9.6395 9.63945 11.4236 9.63945 13.5955V21.2749C9.63945 23.4469 11.4235 25.231 13.5955 25.231H21.2749C23.4468 25.231 25.2309 23.4469 25.2309 21.2749V13.5955C25.2309 11.4236 23.4468 9.6395 21.2749 9.6395H13.5955Z" fill="#272727"/>
</svg>
