<svg width="35" height="35" viewBox="0 0 35 35" fill="none" xmlns="http://www.w3.org/2000/svg">
<circle cx="17.5" cy="17.5" r="17.5" fill="white"/>
<path d="M27.8713 14.8977C27.8713 12.3466 25.8108 10.188 23.1616 10.188H11.1912C8.64008 10.188 6.48148 12.2485 6.48148 14.8977V20.4904C6.48148 23.0415 8.54196 25.2001 11.1912 25.2001H23.1616C25.7127 25.2001 27.8713 23.1396 27.8713 20.4904V14.8977ZM20.8068 18.0375L15.4103 20.6867C15.214 20.7848 14.5272 20.6867 14.5272 20.3923V14.8977C14.5272 14.7015 15.214 14.5052 15.4103 14.6033L20.5124 17.3507C20.8068 17.645 21.1011 17.9393 20.8068 18.0375Z" fill="#272727"/>
</svg>
