<svg width="28" height="28" viewBox="0 0 28 28" fill="none" xmlns="http://www.w3.org/2000/svg">
<circle cx="14.0814" cy="13.7558" r="13.7558" fill="white" fill-opacity="0.2"/>
<path d="M18.0241 10.6256C18.5292 10.6256 18.9387 10.2161 18.9387 9.71099C18.9387 9.20587 18.5292 8.79639 18.0241 8.79639C17.519 8.79639 17.1095 9.20587 17.1095 9.71099C17.1095 10.2161 17.519 10.6256 18.0241 10.6256Z" fill="white"/>
<path d="M14.0609 9.95557C11.9878 9.95557 10.3416 11.6018 10.3416 13.6749C10.3416 15.748 11.9878 17.3943 14.0609 17.3943C16.134 17.3943 17.7803 15.748 17.7803 13.6749C17.8413 11.6628 16.134 9.95557 14.0609 9.95557ZM14.0609 16.1139C12.7195 16.1139 11.683 15.0163 11.683 13.7359C11.683 12.3945 12.7805 11.3579 14.0609 11.3579C15.4023 11.3579 16.4389 12.4555 16.4389 13.7359C16.4999 15.0163 15.4023 16.1139 14.0609 16.1139Z" fill="white"/>
<path d="M17.0486 21.2961H11.0122C8.5123 21.2961 6.43921 19.223 6.43921 16.7231V10.6868C6.43921 8.18686 8.5123 6.11377 11.0122 6.11377H17.0486C19.5485 6.11377 21.6216 8.18686 21.6216 10.6868V16.7231C21.6216 19.284 19.5485 21.2961 17.0486 21.2961ZM11.0122 7.57713C9.30495 7.57713 7.90257 8.97951 7.90257 10.6868V16.7231C7.90257 18.4304 9.30495 19.8328 11.0122 19.8328H17.0486C18.7558 19.8328 20.1582 18.4304 20.1582 16.7231V10.6868C20.1582 8.97951 18.7558 7.57713 17.0486 7.57713H11.0122Z" fill="white"/>
</svg>
