<svg width="37" height="33" viewBox="0 0 37 33" fill="none" xmlns="http://www.w3.org/2000/svg">
<path d="M31.8044 30.6149C31.8044 31.9463 30.7484 32.9924 29.4044 32.9924H5.40439C4.06039 32.9924 3.00439 31.9463 3.00439 30.6149V11.1192C3.00439 9.78781 4.06039 8.7417 5.40439 8.7417H29.4044C30.7484 8.7417 31.8044 9.78781 31.8044 11.1192V30.6149Z" fill="white"/>
<path d="M20.4764 0.610474L35.5484 9.64506C36.3644 10.1206 36.0284 11.5946 35.0684 11.5946H0.940387C-0.0196131 11.5946 -0.355613 10.1206 0.460387 9.64506L15.3404 0.753125C16.9244 -0.150333 18.8924 -0.292984 20.4764 0.610474Z" fill="white"/>
<path d="M18.7964 13.5719C18.5084 15.474 19.5644 16.9956 21.0524 17.2333C22.5404 17.4711 23.8364 16.3299 24.1244 14.4279C24.4124 12.5258 23.4524 10.1008 22.0124 10.0057C20.3324 9.81546 19.0844 11.6699 18.7964 13.5719Z" fill="#272727"/>
<path d="M24.1723 18.1367C23.5963 19.4206 24.2203 20.5143 25.3243 20.752C26.4283 20.9898 27.7243 20.1814 28.0123 18.8025C28.3003 17.4235 28.0603 16.0921 27.0523 15.8068C26.0923 15.569 24.7003 16.948 24.1723 18.1367Z" fill="#272727"/>
<path d="M11.9324 18.1367C12.5084 19.4206 11.8844 20.5143 10.7804 20.752C9.67636 20.9898 8.38036 20.1814 8.09236 18.8025C7.80436 17.4235 8.04436 16.0921 9.05236 15.8068C10.0124 15.569 11.4044 16.948 11.9324 18.1367Z" fill="#272727"/>
<path d="M17.6923 13.5719C17.9803 15.474 16.9243 16.9956 15.4363 17.2333C13.9483 17.4711 12.6523 16.3299 12.3643 14.4279C12.0763 12.5258 13.0363 10.1008 14.4763 10.0057C16.2043 9.81546 17.4523 11.6699 17.6923 13.5719Z" fill="#272727"/>
<path d="M18.5564 18.5649C22.2524 18.5649 27.7244 25.9828 26.2844 27.552C24.8444 29.1211 20.4764 26.7912 18.6524 26.7912C16.8284 26.7912 13.1804 29.2162 11.0204 27.8848C8.86036 26.5534 14.7164 18.5649 18.5564 18.5649Z" fill="#272727"/>
</svg>
