<svg width="28" height="28" viewBox="0 0 28 28" fill="none" xmlns="http://www.w3.org/2000/svg">
<circle cx="13.9187" cy="13.7558" r="13.7558" fill="white" fill-opacity="0.2"/>
<path d="M22.071 11.7103C22.071 9.70508 20.4513 8.0083 18.3689 8.0083H8.9596C6.95433 8.0083 5.25757 9.62795 5.25757 11.7103V16.1065C5.25757 18.1118 6.87721 19.8085 8.9596 19.8085H18.3689C20.3742 19.8085 22.071 18.1889 22.071 16.1065V11.7103ZM16.5179 14.1784L12.276 16.2608C12.1218 16.3379 11.5819 16.2607 11.5819 16.0294V11.7103C11.5819 11.5561 12.1218 11.4018 12.276 11.479L16.2865 13.6385C16.5179 13.8699 16.7493 14.1012 16.5179 14.1784Z" fill="white"/>
</svg>
