<svg width="9" height="5" viewBox="0 0 9 5" fill="none" xmlns="http://www.w3.org/2000/svg">
<path d="M1.65079 0.240743C1.23147 -0.118679 0.600166 -0.0701172 0.240743 0.349209C-0.118679 0.768534 -0.0701172 1.39983 0.349209 1.75926L1.65079 0.240743ZM4.5 4L3.84921 4.75926C4.2237 5.08025 4.7763 5.08025 5.15079 4.75926L4.5 4ZM8.65079 1.75926C9.07012 1.39983 9.11868 0.768534 8.75926 0.349209C8.39983 -0.0701172 7.76853 -0.118679 7.34921 0.240743L8.65079 1.75926ZM0.349209 1.75926L3.84921 4.75926L5.15079 3.24074L1.65079 0.240743L0.349209 1.75926ZM5.15079 4.75926L8.65079 1.75926L7.34921 0.240743L3.84921 3.24074L5.15079 4.75926Z" fill="#3A3A3A"/>
</svg>
