<svg width="11" height="13" viewBox="0 0 11 13" fill="none" xmlns="http://www.w3.org/2000/svg">
<path fill-rule="evenodd" clip-rule="evenodd" d="M5.5 12.4583C5.5 12.4583 10.375 9.20832 10.375 5.41666C10.375 4.12373 9.86139 2.88375 8.94715 1.96951C8.03291 1.05527 6.79293 0.541656 5.5 0.541656C4.20707 0.541656 2.96709 1.05527 2.05285 1.96951C1.13861 2.88375 0.625 4.12373 0.625 5.41666C0.625 9.20832 5.5 12.4583 5.5 12.4583ZM7.66667 5.41666C7.66667 6.61328 6.69662 7.58333 5.5 7.58333C4.30338 7.58333 3.33333 6.61328 3.33333 5.41666C3.33333 4.22004 4.30338 3.24999 5.5 3.24999C6.69662 3.24999 7.66667 4.22004 7.66667 5.41666Z" fill="white"/>
</svg>
