<svg width="33" height="30" viewBox="0 0 33 30" fill="none" xmlns="http://www.w3.org/2000/svg">
<path d="M28.3514 27.8806C28.3514 29.0675 27.41 30 26.2119 30H4.81765C3.61957 30 2.67822 29.0675 2.67822 27.8806V10.5016C2.67822 9.31476 3.61957 8.38223 4.81765 8.38223H26.2119C27.41 8.38223 28.3514 9.31476 28.3514 10.5016V27.8806Z" fill="white"/>
<path d="M18.2532 1.13392L31.6889 9.1876C32.4163 9.61148 32.1167 10.9255 31.261 10.9255H0.838288C-0.0174837 10.9255 -0.317004 9.61148 0.410402 9.1876L13.6749 1.26108C15.0869 0.455711 16.8412 0.328547 18.2532 1.13392Z" fill="white"/>
<path d="M16.7556 12.6883C16.4989 14.3838 17.4403 15.7402 18.7667 15.9521C20.0931 16.1641 21.2484 15.1468 21.5052 13.4512C21.7619 11.7557 20.9061 9.59395 19.6225 9.50918C18.1249 9.33963 17.0124 10.9928 16.7556 12.6883Z" fill="#272727"/>
<path d="M21.5479 16.7575C21.0345 17.902 21.5907 18.8769 22.5749 19.0888C23.559 19.3008 24.7143 18.5802 24.971 17.3509C25.2277 16.1217 25.0138 14.9348 24.1152 14.6805C23.2595 14.4686 22.0186 15.6978 21.5479 16.7575Z" fill="#272727"/>
<path d="M10.6369 16.7575C11.1503 17.902 10.5941 18.8769 9.60994 19.0888C8.6258 19.3008 7.47051 18.5802 7.21378 17.3509C6.95705 16.1217 7.17099 14.9348 8.06955 14.6805C8.92532 14.4686 10.1662 15.6978 10.6369 16.7575Z" fill="#272727"/>
<path d="M15.7715 12.6883C16.0283 14.3838 15.0869 15.7402 13.7605 15.9521C12.434 16.1641 11.2787 15.1468 11.022 13.4512C10.7653 11.7557 11.621 9.59395 12.9047 9.50918C14.4451 9.33963 15.5576 10.9928 15.7715 12.6883Z" fill="#272727"/>
<path d="M16.5416 17.139C19.8364 17.139 24.7143 23.7515 23.4306 25.1503C22.147 26.5491 18.2532 24.4721 16.6272 24.4721C15.0013 24.4721 11.7493 26.6339 9.82384 25.447C7.89835 24.2602 13.1186 17.139 16.5416 17.139Z" fill="#272727"/>
</svg>
