<svg width="14" height="14" viewBox="0 0 14 14" fill="none" xmlns="http://www.w3.org/2000/svg">
<path d="M1 6C0.447715 6 0 6.44772 0 7C0 7.55229 0.447715 8 1 8V6ZM12 8C12.5523 8 13 7.55229 13 7C13 6.44772 12.5523 6 12 6V8ZM1 8H12V6H1V8Z" fill="white"/>
<path d="M6.29896 12.0836C5.90511 12.4708 5.89971 13.1039 6.28688 13.4978C6.67405 13.8916 7.3072 13.897 7.70104 13.5099L6.29896 12.0836ZM13 6.89838L13.701 7.6115C13.8923 7.42349 14 7.16655 14 6.89838C14 6.6302 13.8923 6.37326 13.701 6.18526L13 6.89838ZM7.70104 0.28688C7.3072 -0.100295 6.67405 -0.0948877 6.28688 0.298958C5.8997 0.692803 5.90511 1.32594 6.29896 1.71312L7.70104 0.28688ZM7.70104 13.5099L13.701 7.6115L12.299 6.18526L6.29896 12.0836L7.70104 13.5099ZM13.701 6.18526L7.70104 0.28688L6.29896 1.71312L12.299 7.6115L13.701 6.18526Z" fill="white"/>
</svg>
