<svg width="213" height="32" viewBox="0 0 213 32" fill="none" xmlns="http://www.w3.org/2000/svg">
<path fill-rule="evenodd" clip-rule="evenodd" d="M17.7643 0.66024L30.84 8.4396C31.5479 8.84904 31.2564 10.1183 30.4236 10.1183H27.6968V26.7452C27.6968 27.8945 26.7757 28.7975 25.6034 28.7975H4.6698C3.49751 28.7975 2.57643 27.8945 2.57643 26.7452V10.1183H0.815832C-0.0170153 10.1183 -0.308512 8.84904 0.399408 8.4396L13.3085 0.783072C14.6827 0.00513597 16.3901 -0.117696 17.7643 0.66024ZM18.3387 15.2436C17.1024 15.033 16.225 13.6853 16.4643 12.0007C16.7036 10.3161 17.7405 8.67357 19.1364 8.84203C20.3328 8.92626 21.1305 11.0742 20.8912 12.7588C20.6519 14.4434 19.5751 15.4542 18.3387 15.2436ZM21.1193 15.9512C20.6302 17.0234 21.16 17.9367 22.0975 18.1352C23.035 18.3338 24.1355 17.6587 24.38 16.5072C24.6246 15.3556 24.4208 14.2438 23.5648 14.0055C22.7497 13.807 21.5676 14.9585 21.1193 15.9512ZM9.46405 18.1352C10.4015 17.9367 10.9314 17.0234 10.4423 15.9512C9.99392 14.9585 8.8119 13.807 7.99671 14.0055C7.14076 14.2438 6.93697 15.3556 7.18152 16.5072C7.42608 17.6587 8.52659 18.3338 9.46405 18.1352ZM15.4165 12.0007C15.6729 13.6853 14.7328 15.033 13.4082 15.2436C12.0835 15.4542 10.9298 14.4434 10.6734 12.7588C10.417 11.0742 11.2716 8.92626 12.5536 8.84203C14.0919 8.67357 15.2029 10.3161 15.4165 12.0007ZM22.9785 23.9801C24.2567 22.6282 19.3997 16.2374 16.1191 16.2374C12.7107 16.2374 7.51284 23.1198 9.43007 24.2668C10.665 25.0057 12.4479 24.4018 13.9932 23.8784C14.8469 23.5892 15.6281 23.3246 16.2043 23.3246C16.7582 23.3246 17.5765 23.5596 18.4645 23.8146C20.1721 24.305 22.1377 24.8694 22.9785 23.9801Z" fill="white"/>
<path d="M45.0685 22.3763H46.1302C48.7844 19.0042 50.6424 13.0587 51.7041 5.9595H59.8439V22.3763H62.0558V29.7417H59.6669V24.5948H47.4573V29.7417H45.0685V22.3763ZM57.455 8.00052H53.8275C52.9428 14.5673 50.9078 19.4479 49.0498 22.2876V22.3763H57.455V8.00052Z" fill="white"/>
<path fill-rule="evenodd" clip-rule="evenodd" d="M50.8774 5.47418H60.3118V21.6653H62.5411V30.2271H58.8112V25.151H47.8276V30.2271H44.0977V21.6653H45.5033C47.9662 18.4356 49.7533 12.8293 50.793 6.0268L50.8774 5.47418ZM52.0141 6.77193C50.9269 13.5578 49.0619 19.3421 46.3478 22.7162L46.1493 22.963H45.42V28.9294H46.5054V23.8532H60.1334V28.9294H61.2188V22.963H58.9895V6.77193H52.0141ZM53.0091 7.48713H57.9041V22.963H48.1105V22.0327L48.2189 21.8706C50.03 19.1619 52.0514 14.4432 52.9317 8.0491L53.0091 7.48713ZM54.1613 8.78487C53.3154 14.423 51.6025 18.7973 49.9014 21.6653H56.5819V8.78487H54.1613Z" fill="white"/>
<path d="M72.1367 23.1848C71.174 24.171 69.8611 24.8882 68.1982 24.8882C65.7476 24.8882 63.9971 23.2745 63.9971 20.6746C63.9971 18.8816 64.8724 17.7161 66.1852 16.9989C67.0604 16.5507 68.1982 16.3714 69.511 16.2817L71.9617 16.1921V15.4749C71.9617 13.5922 70.8239 12.7853 69.2485 12.7853C67.7606 12.7853 66.6228 13.2336 65.6601 13.8612L64.7848 12.1578C66.2727 11.2613 68.0232 10.813 69.511 10.813C72.4868 10.813 74.4123 12.2474 74.4123 15.4749V20.4057C74.4123 22.7366 74.4998 23.9021 74.6749 24.6193H72.5743L72.1367 23.1848ZM69.8611 18.1644C68.8109 18.1644 68.1107 18.3437 67.5856 18.6126C66.8854 18.9713 66.5353 19.6885 66.5353 20.4953C66.5353 21.9297 67.4105 22.8262 68.8109 22.8262C70.2987 22.8262 71.4365 21.9297 72.0492 21.3022V18.0747L69.8611 18.1644Z" fill="white"/>
<path fill-rule="evenodd" clip-rule="evenodd" d="M65.817 12.5563L66.0785 13.0544C66.9986 12.5747 68.0761 12.2541 69.4003 12.2541C70.2853 12.2541 71.1366 12.4754 71.7735 13.0413C72.4238 13.6192 72.7558 14.4714 72.7558 15.5302V16.8571L69.6956 16.9667C68.4062 17.0534 67.388 17.2232 66.6402 17.5957C65.5138 18.2004 64.807 19.1346 64.807 20.6089C64.807 21.7231 65.1863 22.5749 65.7861 23.1496C66.3895 23.7278 67.2684 24.0752 68.3521 24.0752C69.8129 24.0752 70.9649 23.4638 71.825 22.6016L72.5818 21.8429L73.1958 23.8125H74.0445C73.9492 23.0395 73.9064 21.9593 73.9064 20.3462V15.5302C73.9064 14.091 73.4728 13.152 72.7963 12.5608C72.1043 11.956 71.0568 11.6261 69.6624 11.6261C68.4669 11.6261 67.072 11.936 65.817 12.5563ZM64.6171 11.7308C66.2031 10.7956 68.0637 10.3277 69.6624 10.3277C71.2379 10.3277 72.6362 10.6983 73.6475 11.5821C74.6743 12.4794 75.2016 13.8171 75.2016 15.5302V20.3462C75.2016 22.6296 75.2916 23.6918 75.4443 24.3042L75.6455 25.1109H72.2435L71.9577 24.1941C70.9945 24.9009 69.7901 25.3736 68.3521 25.3736C66.99 25.3736 65.7726 24.9328 64.8911 24.0882C64.0059 23.24 63.5117 22.034 63.5117 20.6089C63.5117 18.5839 64.5487 17.2423 66.0383 16.4459L66.0534 16.4379C67.0501 15.9383 68.2972 15.7588 69.6193 15.6705L69.6293 15.6698L71.4606 15.6043V15.5302C71.4606 14.7501 71.2248 14.2889 70.9143 14.013C70.5904 13.7251 70.0877 13.5525 69.4003 13.5525C68.0573 13.5525 67.0406 13.9442 66.1667 14.5017L65.5734 14.8802L64.0847 12.0447L64.6171 11.7308ZM72.8432 17.3938V21.4907L72.6535 21.6809C71.9965 22.3394 70.7041 23.3596 68.9636 23.3596C68.1282 23.3596 67.3833 23.0952 66.846 22.5565C66.3087 22.0179 66.0449 21.2712 66.0449 20.4337C66.0449 19.452 66.4898 18.496 67.4511 18.0142C68.084 17.697 68.8839 17.5094 69.9986 17.5079L72.8432 17.3938ZM71.5479 18.7452L70.0247 18.8063H70.0118C69.037 18.8063 68.4431 18.9687 68.0303 19.1756C67.594 19.3943 67.3401 19.8393 67.3401 20.4337C67.3401 20.9973 67.5131 21.389 67.7619 21.6384C68.0107 21.8878 68.4014 22.0612 68.9636 22.0612C70.0652 22.0612 70.9655 21.4742 71.5479 20.944V18.7452Z" fill="white"/>
<path d="M78.0723 11.1381H80.562V18.1658C80.562 19.2199 80.4731 20.0105 80.4731 20.889H80.562C81.0066 20.0984 81.629 19.3078 82.4293 18.1658L87.3199 11.2259H89.7207V24.4029H87.231V17.3751C87.231 16.321 87.231 15.5304 87.3199 14.6519H87.231C86.7864 15.4425 86.2528 16.2331 85.4526 17.3751L80.4731 24.315H78.0723V11.1381ZM79.5839 4.9888H81.718C81.718 6.21865 82.3404 7.36065 83.9409 7.36065C85.5415 7.36065 86.1639 6.21865 86.1639 4.9888H88.298C88.3869 7.36065 86.7864 9.20543 83.9409 9.20543C81.0955 9.20543 79.495 7.36065 79.5839 4.9888Z" fill="white"/>
<path fill-rule="evenodd" clip-rule="evenodd" d="M79.0813 4.50348H82.4179V5.1596C82.4179 5.68113 82.5467 6.11732 82.7749 6.40905C82.9852 6.6779 83.3321 6.8929 83.9397 6.8929C84.5473 6.8929 84.8942 6.6779 85.1045 6.40905C85.3327 6.11732 85.4615 5.68113 85.4615 5.1596V4.50348H88.7982L88.821 5.13532C88.8699 6.48383 88.4538 7.72786 87.591 8.63665C86.7264 9.54721 85.4683 10.0636 83.9397 10.0636C82.4111 10.0636 81.153 9.54721 80.2885 8.63664C79.4256 7.72786 79.0096 6.48383 79.0584 5.13532L79.0813 4.50348ZM80.3632 5.81573C80.4485 6.58183 80.7453 7.23408 81.209 7.72249C81.7939 8.3385 82.6992 8.75134 83.9397 8.75134C85.1802 8.75134 86.0855 8.3385 86.6704 7.72249C87.1341 7.23408 87.4309 6.58183 87.5163 5.81573H86.6937C86.6129 6.32048 86.4303 6.81487 86.1065 7.2288C85.6245 7.84492 84.8897 8.20515 83.9397 8.20515C82.9897 8.20515 82.2549 7.84492 81.773 7.2288C81.4492 6.81487 81.2665 6.32048 81.1857 5.81573H80.3632ZM77.5869 10.6983H81.293V18.4342C81.293 18.6357 81.29 18.8278 81.2851 19.0122C81.2967 18.9956 81.3083 18.9788 81.32 18.9621C81.5171 18.6788 81.7249 18.3802 81.9411 18.0607L81.9421 18.0593L86.8929 10.7868H90.206V25.3736H86.4999V17.6195C86.4999 17.4663 86.4999 17.318 86.5002 17.1734C86.3276 17.4342 86.1412 17.7115 85.9383 18.0112L85.9342 18.0172L80.8965 25.2851H77.5869V10.6983ZM78.87 12.0105V23.9729H80.2333L84.8853 17.2612C85.6628 16.1127 86.1652 15.3404 86.5807 14.5756L86.764 14.2382H87.937L87.8664 14.9596C87.7836 15.8066 87.7831 16.5704 87.7831 17.6377V24.0613H88.9229V12.099H87.5631L82.9961 18.8076C82.996 18.8078 82.9962 18.8075 82.9961 18.8076C82.7483 19.1737 82.5232 19.4972 82.3187 19.791C81.8565 20.455 81.4981 20.9701 81.2122 21.4962L81.0289 21.8337H79.9233V21.1776C79.9233 20.7383 79.9438 20.3211 79.9642 19.9043C79.9653 19.8827 79.9663 19.8611 79.9674 19.8395C79.989 19.3976 80.0098 18.9473 80.0098 18.4342V12.0105H78.87Z" fill="white"/>
<path d="M97.9717 24.8486V22.6199C98.1514 22.7091 98.3312 22.7091 98.3312 22.7091C98.9604 22.7091 99.4098 22.3525 99.8592 21.6393C100.938 20.0347 102.106 16.1123 102.645 11.2984H110.105V24.6703H107.589V13.4379H104.713C104.173 17.7169 103.005 21.5502 101.657 23.3331C100.848 24.4029 99.949 24.8486 98.6008 24.8486C98.511 24.9377 98.1514 24.8486 97.9717 24.8486Z" fill="white"/>
<path fill-rule="evenodd" clip-rule="evenodd" d="M102.102 10.813H110.591V25.1608H106.845V14.1929H105.263C104.995 16.1057 104.602 17.9183 104.123 19.481C103.601 21.1843 102.962 22.6384 102.24 23.597C101.802 24.1778 101.313 24.6237 100.721 24.9186C100.166 25.1944 99.5602 25.3185 98.887 25.3334C98.8004 25.3596 98.7287 25.3663 98.6944 25.3693C98.5882 25.3783 98.4849 25.3712 98.415 25.3649C98.3604 25.36 98.3 25.3527 98.254 25.3472C98.2402 25.3456 98.2277 25.3441 98.217 25.3428C98.19 25.3397 98.1697 25.3376 98.1535 25.3362C98.1397 25.3351 98.1339 25.3349 98.1339 25.3349H97.4863V21.4691L98.4248 21.9361C98.4378 21.9426 98.4588 21.9491 98.4819 21.9529C98.4883 21.954 98.4934 21.9546 98.4968 21.9549C98.7734 21.9515 99.0372 21.8259 99.4216 21.2138L99.4267 21.2057L99.4319 21.1978C99.8986 20.5012 100.423 19.2316 100.899 17.5111C101.37 15.8063 101.779 13.7073 102.038 11.3871L102.102 10.813ZM98.7832 24.044C99.3478 24.0401 99.7788 23.9442 100.141 23.7641C100.51 23.5802 100.853 23.2862 101.202 22.8225C101.792 22.0401 102.377 20.7522 102.883 19.1042C103.384 17.4688 103.793 15.5253 104.051 13.4675L104.122 12.9021H108.142V23.8701H109.294V12.1038H103.26C102.993 14.2584 102.6 16.2203 102.149 17.8534C101.664 19.6094 101.097 21.0349 100.516 21.9059C100.086 22.589 99.557 23.1174 98.7832 23.2255V24.044Z" fill="white"/>
<path d="M121.157 23.1848C120.194 24.171 118.882 24.8882 117.219 24.8882C114.768 24.8882 113.018 23.2745 113.018 20.6746C113.018 18.8816 113.893 17.7161 115.206 16.9989C116.081 16.5507 117.219 16.3714 118.531 16.2817L120.982 16.1921V15.4749C120.982 13.5922 119.844 12.7853 118.269 12.7853C116.781 12.7853 115.643 13.2336 114.681 13.8612L113.805 12.1578C115.293 11.2613 117.044 10.813 118.531 10.813C121.507 10.813 123.433 12.2474 123.433 15.4749V20.4057C123.433 22.7366 123.52 23.9021 123.695 24.6193H121.595L121.157 23.1848ZM118.794 18.1644C117.744 18.1644 117.044 18.3437 116.518 18.6126C115.818 18.9713 115.468 19.6885 115.468 20.4953C115.468 21.9297 116.343 22.8262 117.744 22.8262C119.232 22.8262 120.369 21.9297 120.982 21.3022V18.0747L118.794 18.1644Z" fill="white"/>
<path fill-rule="evenodd" clip-rule="evenodd" d="M114.837 12.5563L115.099 13.0544C116.019 12.5747 117.097 12.2541 118.421 12.2541C119.306 12.2541 120.157 12.4754 120.794 13.0413C121.444 13.6192 121.776 14.4714 121.776 15.5302V16.8571L118.716 16.9667C117.427 17.0534 116.408 17.2232 115.661 17.5957C114.534 18.2004 113.827 19.1346 113.827 20.6089C113.827 21.7231 114.207 22.5749 114.807 23.1496C115.41 23.7278 116.289 24.0752 117.373 24.0752C118.833 24.0752 119.985 23.4638 120.845 22.6016L121.602 21.8429L122.216 23.8125H123.065C122.97 23.0395 122.927 21.9593 122.927 20.3462V15.5302C122.927 14.091 122.493 13.152 121.817 12.5608C121.125 11.956 120.077 11.6261 118.683 11.6261C117.487 11.6261 116.093 11.936 114.837 12.5563ZM113.638 11.7308C115.224 10.7956 117.084 10.3277 118.683 10.3277C120.258 10.3277 121.657 10.6983 122.668 11.5821C123.695 12.4794 124.222 13.8171 124.222 15.5302V20.3462C124.222 22.6296 124.312 23.6918 124.465 24.3042L124.666 25.1109H121.264L120.978 24.1941C120.015 24.9009 118.811 25.3736 117.373 25.3736C116.011 25.3736 114.793 24.9328 113.912 24.0882C113.026 23.24 112.532 22.034 112.532 20.6089C112.532 18.5839 113.569 17.2423 115.059 16.4459L115.074 16.4379C116.071 15.9383 117.318 15.7588 118.64 15.6705L118.65 15.6698L120.481 15.6043V15.5302C120.481 14.7501 120.245 14.2889 119.935 14.013C119.611 13.7251 119.108 13.5525 118.421 13.5525C117.078 13.5525 116.061 13.9442 115.187 14.5017L114.594 14.8802L113.105 12.0447L113.638 11.7308ZM121.776 17.3938V21.4907L121.587 21.6809C120.93 22.3394 119.637 23.3596 117.897 23.3596C117.061 23.3596 116.316 23.0952 115.779 22.5565C115.242 22.0179 114.978 21.2712 114.978 20.4337C114.978 19.452 115.423 18.496 116.384 18.0142C117.017 17.697 117.817 17.5094 118.932 17.5079L121.776 17.3938ZM120.481 18.7452L118.958 18.8063H118.945C117.97 18.8063 117.376 18.9687 116.963 19.1756C116.527 19.3943 116.273 19.8393 116.273 20.4337C116.273 20.9973 116.446 21.389 116.695 21.6384C116.944 21.8878 117.335 22.0612 117.897 22.0612C118.998 22.0612 119.899 21.4742 120.481 20.944V18.7452Z" fill="white"/>
<path d="M127.093 11.2984H137.77V24.4029H135.32V13.4825H129.543V24.4029H127.093V11.2984Z" fill="white"/>
<path fill-rule="evenodd" clip-rule="evenodd" d="M127.437 12.1229V24.0637H128.605V13.0215H135.773V24.0637H136.941V12.1229H127.437ZM126.122 10.813H126.78H138.256V25.3736H134.458V14.3313H129.92V25.3736H126.122V11.468V10.813Z" fill="white"/>
<path d="M148.159 25.3865C146.264 30.4053 144.189 31.1978 141.843 31.1978C140.851 31.1978 139.948 31.0217 139.227 30.6695L139.858 28.6443C140.4 28.9085 141.031 29.0846 141.843 29.0846C143.557 29.0846 144.911 27.9399 145.994 24.594L139.948 11.3864H142.655L147.076 21.6883H147.166L150.685 11.2984H153.302L148.159 25.3865Z" fill="white"/>
<path fill-rule="evenodd" clip-rule="evenodd" d="M149.939 10.813H153.787L148.594 25.5432C147.676 28.0608 146.681 29.6157 145.555 30.5333C144.404 31.4711 143.191 31.6831 141.993 31.6831C140.978 31.6831 140.018 31.4975 139.222 31.0953L138.741 30.8527L139.717 27.6126L140.391 27.9528C140.821 28.1702 141.324 28.3183 141.993 28.3183C142.637 28.3183 143.199 28.1067 143.731 27.5426C144.261 26.9807 144.777 26.0504 145.258 24.5782L139.212 10.8997H143.188L146.945 19.9643L149.939 10.813ZM150.858 12.098L147.513 22.3239H146.545L142.342 12.1847H141.173L146.618 24.5019L146.545 24.7346C146.018 26.4212 145.402 27.6333 144.651 28.4292C143.875 29.2516 142.979 29.6033 141.993 29.6033C141.434 29.6033 140.947 29.5222 140.513 29.3847L140.283 30.1487C140.773 30.3109 141.351 30.3981 141.993 30.3981C143.026 30.3981 143.913 30.2202 144.757 29.5331C145.624 28.8262 146.516 27.5222 147.399 25.1022L151.984 12.098H150.858Z" fill="white"/>
<path d="M155.659 23.7991C155.659 23.1776 155.567 22.5562 155.474 21.9347L157.97 21.4908C158.155 22.1122 158.155 22.7337 158.155 23.2664C158.155 25.2197 157.416 26.9953 155.659 28.771L154.273 28.0608C155.289 26.4626 155.659 25.1309 155.659 23.7991Z" fill="white"/>
<path fill-rule="evenodd" clip-rule="evenodd" d="M158.272 20.5201L158.437 21.0878C158.641 21.7891 158.641 22.4791 158.641 22.9923C158.641 23.0011 158.641 23.0098 158.641 23.0186C158.641 25.1339 157.846 27.0414 156.05 28.898L155.703 29.2564L153.302 27.9987L153.668 27.411C154.595 25.9211 154.909 24.7227 154.909 23.5442C154.909 22.9849 154.827 22.4176 154.737 21.7962L154.647 21.1791L158.272 20.5201ZM156.133 22.2301C156.188 22.6554 156.232 23.098 156.232 23.5442C156.232 24.8182 155.923 26.0767 155.146 27.4922L155.428 27.6397C156.775 26.1192 157.318 24.6301 157.318 23.0186C157.318 22.6821 157.316 22.3498 157.278 22.0219L156.133 22.2301Z" fill="white"/>
<path d="M174.65 11.5506C174.738 10.941 174.738 10.2443 174.65 9.63463C174.472 8.50246 173.764 7.71864 172.612 7.1961C171.726 6.76064 171.106 6.58646 170.22 6.32519C169.511 6.06392 168.98 5.71555 168.714 5.10592C168.359 4.40919 168.448 3.4512 168.625 3.53829C168.98 3.79956 169.688 4.06083 170.84 4.40919C172.612 5.01883 173.852 5.97683 174.827 7.63155C175.979 9.37336 176.51 11.4635 176.599 13.5537C176.599 17.1244 175.004 20.3468 173.232 22.0015C172.169 23.0466 170.486 23.9175 168.98 23.9175C166.499 23.9175 165.436 21.7402 165.436 19.563C165.436 15.9923 167.562 13.2924 169.688 12.0732C170.84 11.4635 172.08 11.0281 172.789 11.0281C173.409 11.0281 174.118 11.1152 174.65 11.5506ZM170.663 12.5086C169.777 12.9441 167.739 14.8601 167.651 19.1275C167.651 21.0435 168.448 22.6111 169.777 22.6111C170.131 22.6111 170.663 22.5241 171.106 22.2628C172.346 21.3919 174.029 18.605 174.295 13.815C174.295 13.3795 174.207 13.0312 173.941 12.7699C173.409 12.2474 172.612 12.0732 172.169 12.0732C171.637 12.0732 171.194 12.2474 170.663 12.5086Z" fill="white"/>
<path fill-rule="evenodd" clip-rule="evenodd" d="M169.248 4.2684C169.273 4.36749 169.307 4.46351 169.348 4.55009L169.357 4.56757L169.364 4.58553C169.521 4.96571 169.838 5.23249 170.446 5.47294C170.481 5.48384 170.516 5.49463 170.55 5.50531C171.346 5.75331 171.977 5.95018 172.845 6.40094C173.083 6.5159 173.307 6.64368 173.515 6.78497C172.765 5.82369 171.851 5.20306 170.645 4.76173C170.088 4.58305 169.622 4.42195 169.248 4.2684ZM175.247 10.1653C175.265 10.6418 175.244 11.1299 175.182 11.5795L175.02 12.7594L174.141 11.9964C173.965 11.8442 173.747 11.7464 173.498 11.6876C173.785 11.8263 174.068 12.0164 174.312 12.271C174.743 12.7191 174.844 13.2883 174.844 13.8177V13.8358L174.843 13.8539C174.71 16.3889 174.222 18.4171 173.597 19.9428C173.253 20.7845 172.86 21.4868 172.454 22.038C172.546 21.9537 172.635 21.8674 172.719 21.7794L172.731 21.7674L172.731 21.7675C174.319 20.1972 175.803 17.0618 175.806 13.5624C175.759 12.3987 175.58 11.2472 175.247 10.1653ZM169.514 23.5222C168.718 23.4105 168.121 22.8541 167.737 22.1525C167.312 21.3746 167.104 20.3554 167.104 19.2895V19.276L167.104 19.276C167.151 16.9035 167.728 15.164 168.427 13.9565C167.191 15.3256 166.228 17.3225 166.228 19.7381C166.228 20.7661 166.467 21.7432 166.933 22.4426C167.38 23.1152 168.051 23.5581 169.035 23.5581C169.192 23.5581 169.352 23.5457 169.514 23.5222ZM168.512 2.58126C168.686 2.53836 168.849 2.57164 168.977 2.63803L169.028 2.66484L169.074 2.70083C169.176 2.78075 169.371 2.88928 169.711 3.02897C170.044 3.16529 170.477 3.31637 171.033 3.49424L171.044 3.49798L171.056 3.50217C172.911 4.17812 174.24 5.26118 175.267 7.10082C176.458 9.01614 176.994 11.2873 177.084 13.5209L177.084 13.5348V13.5486C177.084 17.3952 175.471 20.8882 173.617 22.726C172.5 23.8864 170.712 24.8882 169.035 24.8882C167.607 24.8882 166.555 24.2099 165.883 23.2005C165.228 22.218 164.95 20.9526 164.95 19.7381C164.95 15.7936 167.165 12.8082 169.403 11.4492L169.412 11.4435L169.422 11.4381C170.008 11.1094 170.621 10.8253 171.185 10.6217C171.735 10.4231 172.289 10.2822 172.74 10.2822C173.1 10.2822 173.537 10.3101 173.975 10.4426C173.973 10.1577 173.954 9.87406 173.918 9.60966C173.785 8.7149 173.272 8.07126 172.3 7.6042L172.291 7.59985L172.282 7.5952C171.511 7.19343 170.97 7.02491 170.167 6.7742C170.131 6.76308 170.095 6.75181 170.058 6.74035L170.038 6.73391L170.017 6.72605C169.265 6.43232 168.558 5.98723 168.197 5.12733C167.976 4.65755 167.901 4.13164 167.901 3.73745C167.901 3.54147 167.92 3.3305 167.973 3.15082C167.995 3.0736 168.047 2.92019 168.169 2.78755C168.237 2.71418 168.349 2.62153 168.512 2.58126ZM172.137 12.6887C171.775 12.6887 171.456 12.8081 170.958 13.067C170.341 13.3883 168.466 15.1133 168.382 19.2963C168.383 20.2009 168.563 20.9733 168.848 21.4947C169.129 22.0091 169.464 22.2126 169.811 22.2126C170.068 22.2126 170.451 22.1429 170.753 21.9616C171.225 21.6009 171.864 20.7829 172.422 19.4212C172.98 18.0576 173.439 16.19 173.566 13.8005C173.564 13.4455 173.494 13.3002 173.409 13.2116C173.048 12.8362 172.459 12.6887 172.137 12.6887Z" fill="white"/>
<path d="M183.382 11.0912C184.188 10.8249 185.263 10.7361 186.069 10.7361C189.024 10.7361 190.189 12.1566 190.189 14.6426C190.189 16.507 189.383 18.6378 187.77 20.5023C186.338 22.1004 184.278 23.3434 182.397 23.7873C181.949 23.7873 181.233 23.6985 180.695 23.5209L179.889 27.5162C179.531 29.1143 179.71 29.3807 181.143 29.5582L181.86 29.647L181.77 30.3573L175.143 30.7124L175.232 30.0022C177.023 29.647 177.382 29.4695 177.74 27.6938C178.815 22.7219 179.889 17.75 180.964 12.8669C180.068 13.1332 179.262 13.5772 178.635 13.9323L178.456 13.222C179.262 12.6893 180.248 12.1566 181.233 11.8015L181.591 10.5585C182.128 9.93702 183.024 9.31553 183.651 8.87161L183.919 9.04918L183.382 11.0912ZM181.143 21.6565C181.501 22.1004 182.218 22.6331 182.934 22.6331C184.994 22.6331 187.77 18.8154 187.77 15.1753C187.77 12.6893 186.427 11.979 184.725 11.979C184.278 11.979 183.651 12.0678 183.113 12.1566L181.143 21.6565Z" fill="white"/>
<path fill-rule="evenodd" clip-rule="evenodd" d="M183.444 8.38626L184.49 9.07467L184.109 10.5173C184.732 10.4222 185.367 10.3885 185.88 10.3885C187.458 10.3885 188.695 10.7661 189.529 11.6039C190.362 12.44 190.674 13.6144 190.674 14.9447C190.674 16.9861 189.793 19.2603 188.091 21.2211L188.083 21.2301C186.564 22.9175 184.383 24.2347 182.355 24.7116L182.279 24.7294H182.2C181.879 24.7294 181.444 24.6908 181.011 24.6107L180.337 27.9369C180.249 28.3301 180.204 28.5986 180.195 28.7897C180.189 28.9187 180.202 28.977 180.208 28.9964C180.222 29.0055 180.252 29.0228 180.314 29.0446C180.455 29.0938 180.674 29.1371 181.027 29.1807L182.405 29.3508L182.164 31.2566L174.172 31.6831L174.42 29.7243L174.89 29.6314C175.835 29.4448 176.178 29.3334 176.377 29.1609C176.549 29.0124 176.7 28.7362 176.881 27.8428L176.883 27.8339L176.885 27.8264C177.873 23.2731 178.861 18.7185 179.85 14.2322C179.458 14.417 179.093 14.6191 178.761 14.8062L177.999 15.2365L177.492 13.2369L177.882 12.9801C178.637 12.4832 179.548 11.9821 180.485 11.6124L180.793 10.5497L180.888 10.4407C181.456 9.78552 182.357 9.15153 182.963 8.72536C183 8.6994 183.036 8.67422 183.07 8.64984L183.444 8.38626ZM181.568 12.616L181.415 13.3124C180.338 18.183 179.262 23.1424 178.186 28.1033L178.185 28.1049C178.007 28.9817 177.799 29.6788 177.254 30.1498C177.231 30.1692 177.209 30.188 177.185 30.2063L179.463 30.0848C179.315 29.9863 179.181 29.8583 179.076 29.6895C178.886 29.3855 178.852 29.0444 178.866 28.732C178.88 28.4209 178.946 28.0603 179.036 27.6587L179.991 22.9479L180.706 23.1832C181.042 23.2941 181.479 23.3671 181.842 23.3983C181.669 23.3305 181.508 23.2484 181.362 23.1607C180.98 22.932 180.652 22.6369 180.424 22.356L180.229 22.1152L182.252 12.4004L182.234 12.4064L182.314 12.1051L182.359 11.8894L182.371 11.8873L182.729 10.534C182.454 10.7506 182.197 10.9731 181.991 11.1932L181.58 12.6118L181.568 12.616ZM185.501 11.7091C186.1 11.8162 186.671 12.043 187.144 12.4619C187.881 13.1158 188.251 14.1227 188.251 15.4764C188.251 17.4467 187.502 19.4327 186.489 20.9263C186.465 20.9619 186.441 20.9973 186.416 21.0324C186.651 20.8178 186.875 20.5937 187.084 20.3614C188.61 18.6014 189.343 16.6238 189.343 14.9447C189.343 13.7936 189.072 13.0185 188.58 12.5253C188.091 12.0338 187.264 11.7025 185.88 11.7025C185.758 11.7025 185.632 11.7046 185.501 11.7091ZM183.477 13.0417L181.665 21.747C181.776 21.8491 181.908 21.9509 182.052 22.0375C182.302 22.1872 182.541 22.2633 182.739 22.2633C183.054 22.2633 183.475 22.1125 183.964 21.7453C184.444 21.3845 184.938 20.8528 185.383 20.1954C186.278 18.8754 186.92 17.1395 186.92 15.4764C186.92 14.3487 186.616 13.7605 186.254 13.4396C185.879 13.1066 185.309 12.9432 184.534 12.9432C184.253 12.9432 183.872 12.9848 183.477 13.0417Z" fill="white"/>
<path d="M197.466 21.5418C198.631 19.7537 201.052 15.7304 201.141 13.5846C201.141 13.0482 200.962 12.6012 200.872 12.2435C200.693 11.6177 201.41 10.813 202.128 10.813C202.665 10.813 203.203 11.3495 203.293 12.4223C203.293 13.1376 202.934 14.0317 202.307 15.4622C200.962 17.9656 198.542 21.7207 197.107 23.8664C195.852 25.744 195.045 26.9063 193.7 28.5156C192.087 30.4825 191.011 31.1978 190.383 31.1978C189.756 31.1978 189.218 30.3931 189.218 29.6779C189.218 29.3202 189.397 28.9626 189.756 28.9626C191.19 28.8732 192.176 28.4262 193.252 27.3533C194.328 26.2804 195.135 25.2969 195.762 24.1346C195.762 21.7207 195.045 16.5351 194.687 15.0151C194.328 13.4952 194.238 13.0482 193.88 13.0482C193.611 13.0482 193.073 13.4952 192.356 14.4787L191.818 13.9423C192.714 12.6012 194.059 10.9024 195.135 10.9024C195.852 10.9024 196.3 11.9753 196.659 14.0317C196.749 15.9986 197.107 18.7702 197.466 21.5418Z" fill="white"/>
<path fill-rule="evenodd" clip-rule="evenodd" d="M201.537 11.8831C201.377 12.0657 201.385 12.1937 201.389 12.2077L201.392 12.2181L201.395 12.2287C201.407 12.2774 201.425 12.3395 201.447 12.4126C201.535 12.7118 201.677 13.196 201.677 13.706V13.7196L201.676 13.7331C201.65 14.359 201.46 15.0754 201.2 15.7949C201.137 15.9696 201.068 16.1468 200.996 16.3256C201.207 15.9549 201.404 15.5999 201.582 15.2677C201.884 14.5738 202.11 14.0328 202.263 13.5835C202.412 13.1437 202.476 12.8326 202.48 12.5886C202.398 11.6978 202.01 11.6317 201.991 11.6317C201.874 11.6317 201.689 11.7092 201.537 11.8831ZM197.85 19.6313C197.588 17.5487 197.365 15.5931 197.298 14.1161L197.296 14.0748L197.289 14.034C197.112 13.0119 196.904 12.1709 196.624 11.5717C196.357 10.9982 195.909 10.4156 195.161 10.4156C194.731 10.4156 194.332 10.5839 193.992 10.7952C193.648 11.0097 193.317 11.2987 193.012 11.6114C192.401 12.2367 191.828 13.0231 191.381 13.6961L191.086 14.1408L192.525 15.586L192.971 14.9689C193.302 14.5123 193.577 14.2003 193.784 14.0086C193.854 14.2483 193.936 14.5978 194.057 15.1177C194.068 15.1646 194.079 15.2128 194.091 15.2624C194.424 16.6827 195.093 21.5348 195.124 23.9183C194.562 24.9257 193.841 25.806 192.863 26.7884C192.376 27.277 191.935 27.5989 191.475 27.8114C191.02 28.0216 190.515 28.1396 189.882 28.1807C189.468 28.1893 189.157 28.4139 188.973 28.6907C188.798 28.9535 188.732 29.2634 188.732 29.536C188.732 30.0381 188.915 30.5447 189.197 30.9321C189.471 31.3092 189.927 31.6831 190.52 31.6831C191.048 31.6831 191.608 31.3952 192.177 30.9527C192.765 30.4941 193.456 29.7947 194.26 28.808C195.595 27.1995 196.398 26.0339 197.627 24.1813C199.029 22.0694 201.409 18.3532 202.738 15.8607L202.75 15.8379L202.761 15.8142C203.066 15.1124 203.318 14.5173 203.492 14.0043C203.666 13.4925 203.778 13.0185 203.778 12.5627V12.5356L203.776 12.5086C203.677 11.3155 203.022 10.3277 201.991 10.3277C201.407 10.3277 200.891 10.646 200.562 11.0217C200.243 11.3863 199.973 11.9568 200.137 12.5542C200.169 12.6782 200.201 12.7896 200.231 12.8947C200.31 13.1669 200.376 13.3964 200.378 13.6925C200.358 14.1203 200.22 14.6852 199.98 15.3492C199.74 16.0116 199.413 16.7338 199.048 17.4564C198.664 18.2159 198.244 18.9652 197.85 19.6313ZM196.952 22.8452C196.81 23.061 196.675 23.266 196.547 23.458C196.503 23.5243 196.46 23.5897 196.417 23.6543C196.345 21.0904 195.695 16.4147 195.355 14.9638C195.339 14.8948 195.323 14.8275 195.308 14.7618C195.163 14.1427 195.053 13.6712 194.938 13.3586C194.874 13.185 194.781 12.9787 194.621 12.8143C194.428 12.617 194.187 12.5268 193.937 12.5263C193.938 12.5257 193.938 12.5252 193.939 12.5247C194.202 12.2547 194.452 12.0435 194.677 11.9035C194.907 11.7603 195.065 11.7197 195.161 11.7197C195.164 11.7197 195.165 11.7199 195.165 11.7201C195.165 11.7201 195.165 11.7202 195.165 11.7201C195.167 11.721 195.181 11.7271 195.206 11.7497C195.262 11.7998 195.348 11.9092 195.449 12.1246C195.648 12.5529 195.832 13.238 196.003 14.2172C196.095 16.1762 196.445 18.903 196.79 21.5904L196.952 22.8452ZM192.752 28.5787C192.515 28.7395 192.272 28.8785 192.017 28.9961C191.406 29.2785 190.76 29.424 190.035 29.4773C190.033 29.495 190.031 29.5149 190.031 29.536C190.031 29.7376 190.111 29.9785 190.245 30.1627C190.387 30.3572 190.5 30.3791 190.52 30.3791C190.605 30.3791 190.876 30.3152 191.381 29.9222C191.754 29.6318 192.209 29.197 192.752 28.5787Z" fill="white"/>
<path d="M205.834 13.1308C206.605 12.2394 208.232 10.813 210.031 10.813C211.573 10.813 212.515 11.8828 212.515 13.22C212.515 15.0029 211.316 15.7161 209.688 16.7858L208.403 17.6773C207.033 18.5687 206.091 19.3711 206.091 20.53C206.091 21.5997 206.776 22.402 207.89 22.402C208.917 22.402 209.945 21.778 210.887 20.8865L211.316 21.5106C210.288 22.7586 208.403 23.9175 206.776 23.9175C204.721 23.9175 203.778 22.402 203.778 21.154C203.778 19.4602 204.977 18.5687 206.434 17.5881L208.061 16.5184C209.431 15.6269 210.288 14.8246 210.288 13.6657C210.288 12.8634 209.86 12.2394 209.003 12.2394C207.975 12.2394 206.947 13.0417 206.262 13.7548L205.834 13.1308Z" fill="white"/>
<path fill-rule="evenodd" clip-rule="evenodd" d="M208.987 11.7285C209.496 11.7736 209.932 11.9835 210.246 12.3433C210.591 12.739 210.732 13.251 210.732 13.7558C210.732 14.5837 210.376 15.2435 209.831 15.8106C210.348 15.4788 210.758 15.1908 211.073 14.8702C211.479 14.4567 211.706 14.0057 211.706 13.3209C211.706 12.8296 211.528 12.4131 211.225 12.1192C210.924 11.8263 210.46 11.6174 209.823 11.6174C209.543 11.6174 209.263 11.6571 208.987 11.7285ZM206.156 18.3558C204.844 19.2268 204.101 19.9065 204.101 21.0618C204.101 21.9494 204.797 23.1132 206.508 23.1132C206.873 23.1132 207.265 23.0465 207.665 22.9242C207.658 22.9242 207.65 22.9243 207.642 22.9243C206.919 22.9243 206.287 22.6711 205.836 22.2057C205.388 21.7437 205.163 21.119 205.163 20.4529C205.163 19.6805 205.499 19.0528 205.99 18.5251C206.043 18.4679 206.098 18.4115 206.156 18.3558ZM206.953 11.2284C207.755 10.7349 208.746 10.3277 209.823 10.3277C210.756 10.3277 211.557 10.6405 212.129 11.1957C212.699 11.7498 213 12.5075 213 13.3209C213 14.3756 212.616 15.1423 211.997 15.7725C211.469 16.3107 210.754 16.7587 210.027 17.2151C209.96 17.257 209.893 17.2989 209.826 17.3409L208.516 18.2115L208.508 18.2165C207.816 18.6478 207.291 19.0233 206.939 19.4018C206.6 19.7656 206.457 20.0947 206.457 20.4529C206.457 20.8306 206.581 21.1191 206.766 21.3094C206.947 21.4963 207.23 21.6346 207.642 21.6346C208.446 21.6346 209.34 21.158 210.26 20.3237L210.799 19.8357L211.953 21.4458L211.623 21.8293C211.042 22.5048 210.235 23.1406 209.353 23.6094C208.475 24.0765 207.475 24.4029 206.508 24.4029C204.031 24.4029 202.808 22.6094 202.808 21.0618C202.808 19.0122 204.373 17.9665 205.808 17.0413L205.814 17.0375L207.474 15.9922C208.893 15.1078 209.438 14.4955 209.438 13.7558C209.438 13.4777 209.361 13.2939 209.27 13.1895C209.19 13.0981 209.05 13.009 208.776 13.009C208.41 13.009 208.002 13.1481 207.579 13.3977C207.159 13.6447 206.766 13.976 206.442 14.2987L205.902 14.837L204.72 13.1874L205.067 12.8025C205.492 12.3325 206.149 11.7238 206.953 11.2284Z" fill="white"/>
</svg>
