<svg width="35" height="35" viewBox="0 0 35 35" fill="none" xmlns="http://www.w3.org/2000/svg">
<circle cx="17.5" cy="17.5" r="17.5" fill="white" fill-opacity="0.21"/>
<path fill-rule="evenodd" clip-rule="evenodd" d="M17.2105 25.6535C17.2105 25.6535 24.1184 21.0482 24.1184 15.6754C24.1184 13.8434 23.3906 12.0863 22.0951 10.7908C20.7996 9.49534 19.0426 8.76755 17.2105 8.76755C15.3784 8.76755 13.6214 9.49534 12.3259 10.7908C11.0304 12.0863 10.3026 13.8434 10.3026 15.6754C10.3026 21.0482 17.2105 25.6535 17.2105 25.6535ZM20.2807 15.6754C20.2807 17.3711 18.9061 18.7456 17.2105 18.7456C15.5149 18.7456 14.1403 17.3711 14.1403 15.6754C14.1403 13.9798 15.5149 12.6053 17.2105 12.6053C18.9061 12.6053 20.2807 13.9798 20.2807 15.6754Z" fill="white"/>
</svg>
