<svg width="30" height="30" viewBox="0 0 30 30" fill="none" xmlns="http://www.w3.org/2000/svg">
<circle cx="15.0284" cy="14.9148" r="14.9148" fill="white" fill-opacity="0.21"/>
<path d="M19.3034 11.521C19.8511 11.521 20.2951 11.077 20.2951 10.5293C20.2951 9.98167 19.8511 9.53769 19.3034 9.53769C18.7557 9.53769 18.3118 9.98167 18.3118 10.5293C18.3118 11.077 18.7557 11.521 19.3034 11.521Z" fill="white"/>
<path d="M15.0062 10.794C12.7585 10.794 10.9735 12.579 10.9735 14.8268C10.9735 17.0745 12.7585 18.8595 15.0062 18.8595C17.254 18.8595 19.039 17.0745 19.039 14.8268C19.1051 12.6451 17.254 10.794 15.0062 10.794ZM15.0062 17.4712C13.5518 17.4712 12.4279 16.2812 12.4279 14.8929C12.4279 13.4385 13.6179 12.3146 15.0062 12.3146C16.4607 12.3146 17.5846 13.5046 17.5846 14.8929C17.6507 16.2812 16.4607 17.4712 15.0062 17.4712Z" fill="white"/>
<path d="M18.2456 23.0904H11.7007C8.99019 23.0904 6.74243 20.8426 6.74243 18.1321V11.5871C6.74243 8.87661 8.99019 6.62886 11.7007 6.62886H18.2456C20.9562 6.62886 23.2039 8.87661 23.2039 11.5871V18.1321C23.2039 20.9087 20.9562 23.0904 18.2456 23.0904ZM11.7007 8.21551C9.84962 8.21551 8.32908 9.73605 8.32908 11.5871V18.1321C8.32908 19.9832 9.84962 21.5037 11.7007 21.5037H18.2456C20.0967 21.5037 21.6173 19.9832 21.6173 18.1321V11.5871C21.6173 9.73605 20.0967 8.21551 18.2456 8.21551H11.7007Z" fill="white"/>
</svg>
