<svg width="233" height="35" viewBox="0 0 233 35" fill="none" xmlns="http://www.w3.org/2000/svg">
<path fill-rule="evenodd" clip-rule="evenodd" d="M19.3988 0.574025L33.6777 9.06919C34.4507 9.5163 34.1324 10.9024 33.2229 10.9024H30.2452V29.059C30.2452 30.3141 29.2394 31.3002 27.9593 31.3002H5.09947C3.81932 31.3002 2.81349 30.3141 2.81349 29.059V10.9024H0.890899C-0.0185809 10.9024 -0.336899 9.5163 0.436159 9.06919L14.5331 0.708159C16.0337 -0.141357 17.8982 -0.275491 19.3988 0.574025ZM20.0261 16.4993C18.676 16.2694 17.7179 14.7977 17.9792 12.958C18.2405 11.1184 19.3729 9.32475 20.8972 9.50871C22.2037 9.60069 23.0747 11.9462 22.8134 13.7859C22.5521 15.6255 21.3762 16.7293 20.0261 16.4993ZM23.0625 17.272C22.5284 18.4428 23.107 19.4402 24.1307 19.657C25.1545 19.8738 26.3562 19.1366 26.6233 17.8791C26.8904 16.6216 26.6678 15.4074 25.7331 15.1472C24.8429 14.9304 23.5521 16.188 23.0625 17.272ZM10.3349 19.657C11.3586 19.4402 11.9372 18.4428 11.4031 17.272C10.9135 16.188 9.62271 14.9304 8.73251 15.1472C7.7978 15.4074 7.57525 16.6216 7.84231 17.8791C8.10937 19.1366 9.31114 19.8738 10.3349 19.657ZM16.835 12.958C17.115 14.7977 16.0884 16.2694 14.6419 16.4993C13.1954 16.7293 11.9355 15.6255 11.6555 13.7859C11.3755 11.9462 12.3088 9.60069 13.7086 9.50871C15.3885 9.32475 16.6017 11.1184 16.835 12.958ZM25.0928 26.0396C26.4886 24.5633 21.1847 17.5845 17.6022 17.5845C13.8802 17.5845 8.20411 25.1001 10.2978 26.3527C11.6463 27.1596 13.5933 26.5001 15.2807 25.9285C16.213 25.6128 17.0661 25.3238 17.6953 25.3238C18.3002 25.3238 19.1937 25.5804 20.1635 25.8589C22.0281 26.3944 24.1746 27.0108 25.0928 26.0396Z" fill="white"/>
<path d="M49.2153 24.2883H50.3747C53.2732 20.6059 55.3022 14.1133 56.4616 6.36087H65.3503V24.2883H67.7657V32.3314H65.157V26.7109H51.824V32.3314H49.2153V24.2883ZM62.7416 8.58968H58.7804C57.8142 15.7606 55.592 21.0904 53.5631 24.1914V24.2883H62.7416V8.58968Z" fill="white"/>
<path fill-rule="evenodd" clip-rule="evenodd" d="M55.5588 5.83087H65.8612V23.5117H68.2957V32.8614H64.2225V27.3182H52.2284V32.8614H48.1553V23.5117H49.6901C52.3797 19.9849 54.3313 13.8627 55.4666 6.43434L55.5588 5.83087ZM56.8001 7.24803C55.6128 14.6583 53.5763 20.9748 50.6124 24.6594L50.3956 24.9289H49.5992V31.4442H50.7845V25.901H65.6665V31.4442H66.8517V24.9289H64.4173V7.24803H56.8001ZM57.8866 8.02903H63.232V24.9289H52.5373V23.913L52.6556 23.736C54.6334 20.778 56.8407 15.6251 57.8021 8.64272L57.8866 8.02903ZM59.1448 9.44619C58.2211 15.6031 56.3506 20.3799 54.493 23.5117H61.7881V9.44619H59.1448Z" fill="white"/>
<path d="M78.7741 25.1712C77.7228 26.2481 76.2892 27.0313 74.4732 27.0313C71.7971 27.0313 69.8856 25.2691 69.8856 22.43C69.8856 20.472 70.8414 19.1993 72.275 18.4161C73.2308 17.9266 74.4732 17.7308 75.9069 17.6329L78.583 17.535V16.7518C78.583 14.6959 77.3405 13.8148 75.6202 13.8148C73.9954 13.8148 72.7529 14.3043 71.7016 14.9896L70.7458 13.1295C72.3706 12.1505 74.2821 11.661 75.9069 11.661C79.1565 11.661 81.2591 13.2274 81.2591 16.7518V22.1363C81.2591 24.6817 81.3547 25.9544 81.5458 26.7376H79.252L78.7741 25.1712ZM76.2892 19.6888C75.1423 19.6888 74.3777 19.8846 73.8042 20.1783C73.0396 20.5699 72.6573 21.3531 72.6573 22.2342C72.6573 23.8006 73.6131 24.7796 75.1423 24.7796C76.7671 24.7796 78.0095 23.8006 78.6786 23.1153V19.5909L76.2892 19.6888Z" fill="white"/>
<path fill-rule="evenodd" clip-rule="evenodd" d="M71.873 13.5647L72.1586 14.1086C73.1633 13.5847 74.34 13.2346 75.786 13.2346C76.7525 13.2346 77.682 13.4763 78.3775 14.0943C79.0877 14.7253 79.4503 15.656 79.4503 16.8122V18.2612L76.1084 18.3808C74.7004 18.4755 73.5885 18.6609 72.772 19.0677C71.5419 19.7281 70.77 20.7483 70.77 22.3582C70.77 23.5749 71.1843 24.5051 71.8392 25.1326C72.4982 25.7641 73.458 26.1434 74.6414 26.1434C76.2365 26.1434 77.4946 25.4757 78.4338 24.5342L79.2602 23.7058L79.9307 25.8565H80.8576C80.7534 25.0124 80.7067 23.8329 80.7067 22.0713V16.8122C80.7067 15.2405 80.2333 14.2151 79.4945 13.5695C78.7388 12.9091 77.595 12.5488 76.0722 12.5488C74.7667 12.5488 73.2435 12.8873 71.873 13.5647ZM70.5627 12.6631C72.2946 11.6419 74.3264 11.131 76.0722 11.131C77.7926 11.131 79.3196 11.5357 80.424 12.5008C81.5453 13.4807 82.1211 14.9414 82.1211 16.8122V22.0713C82.1211 24.5648 82.2194 25.7247 82.3862 26.3935L82.6058 27.2744H78.8908L78.5787 26.2733C77.5269 27.0451 76.2117 27.5613 74.6414 27.5613C73.154 27.5613 71.8245 27.08 70.8619 26.1576C69.8952 25.2313 69.3556 23.9145 69.3556 22.3582C69.3556 20.1468 70.488 18.6819 72.1147 17.8122L72.1311 17.8034C73.2195 17.2579 74.5814 17.0619 76.0252 16.9654L76.0361 16.9647L78.0358 16.8931V16.8122C78.0358 15.9603 77.7784 15.4566 77.4393 15.1554C77.0856 14.841 76.5366 14.6525 75.786 14.6525C74.3194 14.6525 73.2092 15.0803 72.2548 15.6891L71.607 16.1024L69.9813 13.006L70.5627 12.6631ZM79.5457 18.8473V23.3212L79.3385 23.5288C78.6211 24.248 77.2097 25.362 75.3091 25.362C74.3969 25.362 73.5834 25.0732 72.9967 24.485C72.4099 23.8968 72.1218 23.0814 72.1218 22.1669C72.1218 21.0949 72.6077 20.0509 73.6574 19.5248C74.3486 19.1783 75.222 18.9735 76.4394 18.9719L79.5457 18.8473ZM78.1312 20.323L76.4679 20.3897H76.4538C75.3893 20.3897 74.7407 20.5671 74.29 20.793C73.8135 21.0318 73.5362 21.5178 73.5362 22.1669C73.5362 22.7824 73.7251 23.21 73.9968 23.4824C74.2685 23.7548 74.6952 23.9441 75.3091 23.9441C76.5121 23.9441 77.4952 23.3031 78.1312 22.7241V20.323Z" fill="white"/>
<path d="M85.2559 12.0159H87.9747V19.6903C87.9747 20.8414 87.8776 21.7048 87.8776 22.6641H87.9747C88.4602 21.8007 89.1399 20.9373 90.0138 19.6903L95.3544 12.1118H97.9761V26.5012H95.2573V18.8269C95.2573 17.6757 95.2573 16.8124 95.3544 15.8531H95.2573C94.7718 16.7164 94.1892 17.5798 93.3152 18.8269L87.8776 26.4053H85.2559V12.0159ZM86.9066 5.30084H89.237C89.237 6.64385 89.9167 7.89094 91.6645 7.89094C93.4123 7.89094 94.0921 6.64385 94.0921 5.30084H96.4225C96.5196 7.89094 94.7718 9.90545 91.6645 9.90545C88.5573 9.90545 86.8095 7.89094 86.9066 5.30084Z" fill="white"/>
<path fill-rule="evenodd" clip-rule="evenodd" d="M86.3577 4.77084H90.0014V5.48734C90.0014 6.05686 90.142 6.53318 90.3912 6.85175C90.6209 7.14534 90.9997 7.38012 91.6632 7.38012C92.3267 7.38012 92.7055 7.14534 92.9352 6.85175C93.1844 6.53318 93.325 6.05686 93.325 5.48734V4.77084H96.9687L96.9937 5.46082C97.047 6.93342 96.5927 8.29191 95.6504 9.28431C94.7063 10.2787 93.3325 10.8426 91.6632 10.8426C89.9939 10.8426 88.6201 10.2787 87.676 9.28431C86.7337 8.2919 86.2794 6.93342 86.3328 5.46082L86.3577 4.77084ZM87.7576 6.20383C87.8508 7.04043 88.1749 7.75269 88.6813 8.28605C89.32 8.95874 90.3086 9.40956 91.6632 9.40956C93.0178 9.40956 94.0064 8.95874 94.6451 8.28605C95.1515 7.75269 95.4757 7.04043 95.5689 6.20383H94.6706C94.5824 6.75503 94.3829 7.29492 94.0293 7.74693C93.503 8.41974 92.7006 8.81311 91.6632 8.81311C90.6258 8.81311 89.8234 8.41974 89.2971 7.74693C88.9435 7.29492 88.744 6.75503 88.6558 6.20383H87.7576ZM84.7258 11.5356H88.7729V19.9833C88.7729 20.2034 88.7696 20.4132 88.7643 20.6146C88.777 20.5964 88.7897 20.5781 88.8024 20.5598C89.0176 20.2505 89.2446 19.9244 89.4807 19.5755L89.4818 19.574L94.8882 11.6323H98.5061V27.5613H94.459V19.0937C94.459 18.9265 94.459 18.7644 94.4593 18.6065C94.2708 18.8913 94.0672 19.1941 93.8457 19.5214L93.8413 19.528L88.34 27.4646H84.7258V11.5356ZM86.127 12.9686V26.0316H87.6157L92.6958 18.7025C93.5448 17.4483 94.0935 16.6049 94.5471 15.7698L94.7473 15.4012H96.0282L95.9512 16.189C95.8608 17.114 95.8602 17.948 95.8602 19.1136V26.1283H97.1049V13.0653H95.62L90.6328 20.3912C90.6327 20.3913 90.6329 20.391 90.6328 20.3912C90.3622 20.7909 90.1164 21.1441 89.893 21.465C89.3883 22.1902 88.9969 22.7526 88.6848 23.3271L88.4846 23.6957H87.2772V22.9792C87.2772 22.4995 87.2996 22.0439 87.3219 21.5887C87.3231 21.5652 87.3242 21.5416 87.3254 21.518C87.349 21.0354 87.3717 20.5437 87.3717 19.9833V12.9686H86.127Z" fill="white"/>
<path d="M106.986 26.988V24.5543C107.183 24.6516 107.379 24.6516 107.379 24.6516C108.066 24.6516 108.557 24.2622 109.047 23.4834C110.225 21.7312 111.501 17.4478 112.09 12.191H120.237V26.7933H117.488V14.5273H114.348C113.759 19.2001 112.483 23.3861 111.01 25.3331C110.127 26.5013 109.146 26.988 107.673 26.988C107.575 27.0853 107.183 26.988 106.986 26.988Z" fill="white"/>
<path fill-rule="evenodd" clip-rule="evenodd" d="M111.497 11.661H120.767V27.3289H116.676V15.3518H114.948C114.656 17.4407 114.227 19.42 113.704 21.1265C113.133 22.9866 112.436 24.5744 111.647 25.6212C111.169 26.2555 110.635 26.7424 109.988 27.0644C109.383 27.3657 108.721 27.5012 107.986 27.5174C107.891 27.5461 107.813 27.5534 107.776 27.5566C107.66 27.5665 107.547 27.5587 107.47 27.5518C107.411 27.5464 107.345 27.5385 107.295 27.5325C107.28 27.5307 107.266 27.5291 107.254 27.5277C107.225 27.5243 107.203 27.522 107.185 27.5205C107.17 27.5192 107.163 27.5191 107.163 27.5191H106.456V23.2976L107.481 23.8075C107.495 23.8146 107.518 23.8217 107.543 23.8259C107.55 23.8271 107.556 23.8277 107.56 23.8281C107.862 23.8243 108.15 23.6872 108.57 23.0188L108.575 23.01L108.581 23.0013C109.091 22.2406 109.664 20.8542 110.183 18.9754C110.697 17.1137 111.144 14.8216 111.427 12.2879L111.497 11.661ZM107.873 26.1094C108.489 26.1051 108.96 26.0004 109.355 25.8037C109.758 25.6029 110.132 25.2819 110.514 24.7755C111.158 23.9211 111.797 22.5147 112.349 20.7151C112.897 18.9292 113.343 16.8069 113.625 14.5597L113.703 13.9423H118.092V25.9194H119.35V13.0705H112.761C112.47 15.4234 112.041 17.5658 111.548 19.3491C111.018 21.2668 110.4 22.8235 109.765 23.7745C109.295 24.5205 108.718 25.0976 107.873 25.2155V26.1094Z" fill="white"/>
<path d="M132.305 25.1712C131.254 26.2481 129.82 27.0313 128.004 27.0313C125.328 27.0313 123.417 25.2691 123.417 22.43C123.417 20.472 124.372 19.1993 125.806 18.4161C126.762 17.9266 128.004 17.7308 129.438 17.6329L132.114 17.535V16.7518C132.114 14.6959 130.872 13.8148 129.151 13.8148C127.526 13.8148 126.284 14.3043 125.233 14.9896L124.277 13.1295C125.902 12.1505 127.813 11.661 129.438 11.661C132.687 11.661 134.79 13.2274 134.79 16.7518V22.1363C134.79 24.6817 134.886 25.9544 135.077 26.7376H132.783L132.305 25.1712ZM129.725 19.6888C128.578 19.6888 127.813 19.8846 127.24 20.1783C126.475 20.5699 126.093 21.3531 126.093 22.2342C126.093 23.8006 127.049 24.7796 128.578 24.7796C130.202 24.7796 131.445 23.8006 132.114 23.1153V19.5909L129.725 19.6888Z" fill="white"/>
<path fill-rule="evenodd" clip-rule="evenodd" d="M125.404 13.5647L125.69 14.1086C126.694 13.5847 127.871 13.2346 129.317 13.2346C130.283 13.2346 131.213 13.4763 131.909 14.0943C132.619 14.7253 132.981 15.656 132.981 16.8122V18.2612L129.639 18.3808C128.231 18.4755 127.119 18.6609 126.303 19.0677C125.073 19.7281 124.301 20.7483 124.301 22.3582C124.301 23.5749 124.715 24.5051 125.37 25.1326C126.029 25.7641 126.989 26.1434 128.172 26.1434C129.768 26.1434 131.026 25.4757 131.965 24.5342L132.791 23.7058L133.462 25.8565H134.389C134.284 25.0124 134.238 23.8329 134.238 22.0713V16.8122C134.238 15.2405 133.764 14.2151 133.026 13.5695C132.27 12.9091 131.126 12.5488 129.603 12.5488C128.298 12.5488 126.775 12.8873 125.404 13.5647ZM124.094 12.6631C125.826 11.6419 127.857 11.131 129.603 11.131C131.324 11.131 132.851 11.5357 133.955 12.5008C135.076 13.4807 135.652 14.9414 135.652 16.8122V22.0713C135.652 24.5648 135.75 25.7247 135.917 26.3935L136.137 27.2744H132.422L132.11 26.2733C131.058 27.0451 129.743 27.5613 128.172 27.5613C126.685 27.5613 125.355 27.08 124.393 26.1576C123.426 25.2313 122.887 23.9145 122.887 22.3582C122.887 20.1468 124.019 18.6819 125.646 17.8122L125.662 17.8034C126.751 17.2579 128.112 17.0619 129.556 16.9654L129.567 16.9647L131.567 16.8931V16.8122C131.567 15.9603 131.309 15.4566 130.97 15.1554C130.617 14.841 130.068 14.6525 129.317 14.6525C127.85 14.6525 126.74 15.0803 125.786 15.6891L125.138 16.1024L123.512 13.006L124.094 12.6631ZM132.981 18.8473V23.3212L132.774 23.5288C132.057 24.248 130.645 25.362 128.745 25.362C127.832 25.362 127.019 25.0732 126.432 24.485C125.846 23.8968 125.557 23.0814 125.557 22.1669C125.557 21.0949 126.043 20.0509 127.093 19.5248C127.784 19.1783 128.658 18.9735 129.875 18.9719L132.981 18.8473ZM131.567 20.323L129.904 20.3897H129.889C128.825 20.3897 128.176 20.5671 127.726 20.793C127.249 21.0318 126.972 21.5178 126.972 22.1669C126.972 22.7824 127.161 23.21 127.432 23.4824C127.704 23.7548 128.131 23.9441 128.745 23.9441C129.948 23.9441 130.931 23.3031 131.567 22.7241V20.323Z" fill="white"/>
<path d="M138.787 12.191H150.447V26.5013H147.771V14.576H141.463V26.5013H138.787V12.191V12.191Z" fill="white"/>
<path fill-rule="evenodd" clip-rule="evenodd" d="M139.163 13.0914V26.1309H140.439V14.0726H148.266V26.1309H149.541V13.0914H139.163ZM137.727 11.661H138.445H150.977V27.5613H146.83V15.503H141.874V27.5613H137.727V12.3762V11.661Z" fill="white"/>
<path d="M161.791 27.5753C159.722 33.056 157.456 33.9214 154.895 33.9214C153.811 33.9214 152.825 33.7291 152.037 33.3445L152.727 31.133C153.318 31.4214 154.008 31.6137 154.895 31.6137C156.767 31.6137 158.244 30.3638 159.427 26.71L152.825 12.2871H155.781L160.609 23.5369H160.708L164.55 12.191H167.408L161.791 27.5753Z" fill="white"/>
<path fill-rule="evenodd" clip-rule="evenodd" d="M163.735 11.661H167.938L162.266 27.7465C161.264 30.4957 160.178 32.1938 158.948 33.1958C157.691 34.2199 156.366 34.4514 155.058 34.4514C153.95 34.4514 152.901 34.2487 152.032 33.8095L151.507 33.5446L152.573 30.0063L153.308 30.3779C153.778 30.6152 154.328 30.777 155.058 30.777C155.761 30.777 156.375 30.5459 156.956 29.9299C157.535 29.3163 158.098 28.3004 158.624 26.6927L152.021 11.7556H156.363L160.466 21.6543L163.735 11.661ZM164.739 13.0642L161.086 24.231H160.029L155.439 13.1589H154.162L160.108 26.6094L160.029 26.8636C159.453 28.7053 158.781 30.0289 157.961 30.898C157.114 31.7962 156.135 32.1802 155.058 32.1802C154.448 32.1802 153.916 32.0917 153.442 31.9415L153.19 32.7758C153.726 32.9529 154.357 33.0482 155.058 33.0482C156.186 33.0482 157.155 32.8539 158.076 32.1035C159.023 31.3316 159.998 29.9076 160.962 27.2649L165.968 13.0642H164.739Z" fill="white"/>
<path d="M169.982 25.842C169.982 25.1633 169.881 24.4846 169.78 23.806L172.506 23.3212C172.708 23.9999 172.708 24.6785 172.708 25.2603C172.708 27.3932 171.9 29.3323 169.982 31.2713L168.468 30.4957C169.578 28.7506 169.982 27.2963 169.982 25.842Z" fill="white"/>
<path fill-rule="evenodd" clip-rule="evenodd" d="M172.835 22.2612L173.015 22.8812C173.238 23.647 173.238 24.4004 173.238 24.9609C173.238 24.9705 173.238 24.9801 173.238 24.9896C173.238 27.2995 172.37 29.3826 170.408 31.41L170.03 31.8014L167.407 30.428L167.807 29.7861C168.819 28.1592 169.162 26.8505 169.162 25.5636C169.162 24.9528 169.073 24.3333 168.975 23.6548L168.877 22.9809L172.835 22.2612ZM170.499 24.1286C170.56 24.593 170.607 25.0764 170.607 25.5636C170.607 26.9548 170.27 28.3291 169.421 29.8748L169.729 30.0359C171.2 28.3755 171.793 26.7494 171.793 24.9896C171.793 24.6221 171.791 24.2593 171.75 23.9013L170.499 24.1286Z" fill="white"/>
<path d="M190.72 12.4664C190.816 11.8007 190.816 11.0399 190.72 10.3742C190.526 9.1378 189.752 8.28187 188.494 7.71124C187.527 7.23572 186.85 7.04551 185.882 6.7602C185.108 6.47489 184.528 6.09447 184.238 5.42874C183.851 4.66791 183.947 3.62176 184.141 3.71687C184.528 4.00218 185.302 4.28749 186.559 4.66791C188.494 5.33364 189.849 6.37978 190.913 8.18676C192.171 10.0888 192.751 12.3713 192.848 14.6538C192.848 18.5531 191.107 22.072 189.172 23.8789C188.011 25.0202 186.172 25.9712 184.528 25.9712C181.819 25.9712 180.658 23.5936 180.658 21.216C180.658 17.3168 182.98 14.3685 185.302 13.0371C186.559 12.3713 187.914 11.8958 188.688 11.8958C189.365 11.8958 190.139 11.9909 190.72 12.4664ZM186.366 13.5126C185.398 13.9881 183.173 16.0804 183.077 20.7405C183.077 22.8328 183.947 24.5447 185.398 24.5447C185.785 24.5447 186.366 24.4496 186.85 24.1643C188.204 23.2132 190.042 20.1699 190.333 14.9392C190.333 14.4636 190.236 14.0832 189.946 13.7979C189.365 13.2273 188.494 13.0371 188.011 13.0371C187.43 13.0371 186.946 13.2273 186.366 13.5126Z" fill="white"/>
<path fill-rule="evenodd" clip-rule="evenodd" d="M184.82 4.51415C184.849 4.62236 184.885 4.72721 184.931 4.82176L184.94 4.84084L184.948 4.86046C185.119 5.27562 185.465 5.56695 186.13 5.82953C186.168 5.84143 186.206 5.85321 186.243 5.86488C187.112 6.13569 187.801 6.35067 188.749 6.84291C189.009 6.96845 189.254 7.10799 189.481 7.26228C188.662 6.21255 187.664 5.53481 186.347 5.05287C185.738 4.85775 185.23 4.68183 184.82 4.51415ZM191.372 10.9536C191.392 11.4739 191.368 12.007 191.301 12.498L191.124 13.7864L190.164 12.9532C189.972 12.787 189.734 12.6802 189.462 12.616C189.775 12.7675 190.084 12.975 190.351 13.2531C190.821 13.7425 190.932 14.364 190.932 14.9421V14.9619L190.931 14.9817C190.786 17.7499 190.253 19.9647 189.57 21.6308C189.194 22.5499 188.766 23.3169 188.322 23.9188C188.423 23.8267 188.52 23.7324 188.612 23.6364L188.625 23.6233L188.625 23.6234C190.359 21.9086 191.979 18.4847 191.983 14.6633C191.931 13.3926 191.736 12.1351 191.372 10.9536ZM185.112 25.5395C184.242 25.4176 183.59 24.81 183.171 24.0438C182.707 23.1943 182.48 22.0814 182.48 20.9174V20.9026L182.48 20.9026C182.531 18.3118 183.161 16.4123 183.925 15.0937C182.575 16.5888 181.523 18.7694 181.523 21.4072C181.523 22.5298 181.784 23.5969 182.292 24.3606C182.782 25.095 183.514 25.5787 184.589 25.5787C184.76 25.5787 184.934 25.5653 185.112 25.5395ZM184.017 2.67178C184.207 2.62492 184.385 2.66127 184.525 2.73376L184.581 2.76305L184.631 2.80234C184.743 2.88962 184.955 3.00813 185.327 3.16068C185.69 3.30955 186.164 3.47452 186.77 3.66876L186.783 3.67284L186.795 3.67742C188.821 4.41557 190.272 5.59828 191.393 7.60719C192.694 9.69874 193.28 12.1788 193.377 14.618L193.378 14.6331V14.6483C193.378 18.8488 191.617 22.6632 189.592 24.6701C188.372 25.9373 186.42 27.0313 184.589 27.0313C183.03 27.0313 181.88 26.2905 181.146 25.1882C180.431 24.1153 180.128 22.7335 180.128 21.4072C180.128 17.0998 182.547 13.8397 184.99 12.3557L185 12.3494L185.011 12.3436C185.651 11.9846 186.32 11.6743 186.936 11.452C187.536 11.2352 188.141 11.0813 188.635 11.0813C189.027 11.0813 189.505 11.1118 189.983 11.2565C189.981 10.9454 189.96 10.6356 189.921 10.3469C189.775 9.36979 189.216 8.66693 188.154 8.15689L188.144 8.15214L188.135 8.14706C187.292 7.70832 186.702 7.52429 185.824 7.25051C185.785 7.23838 185.746 7.22607 185.706 7.21355L185.683 7.20652L185.661 7.19794C184.84 6.87718 184.068 6.39113 183.674 5.45212C183.432 4.93911 183.35 4.36481 183.35 3.93434C183.35 3.72033 183.37 3.48996 183.428 3.29374C183.453 3.20941 183.51 3.04189 183.643 2.89705C183.716 2.81692 183.839 2.71575 184.017 2.67178ZM187.976 13.7093C187.581 13.7093 187.232 13.8396 186.689 14.1224C186.015 14.4732 183.967 16.357 183.875 20.9248C183.876 21.9127 184.072 22.7561 184.384 23.3255C184.691 23.8873 185.057 24.1094 185.436 24.1094C185.716 24.1094 186.134 24.0333 186.465 23.8354C186.98 23.4414 187.678 22.5482 188.287 21.0612C188.897 19.5721 189.398 17.5327 189.537 14.9233C189.534 14.5356 189.458 14.377 189.365 14.2802C188.971 13.8703 188.327 13.7093 187.976 13.7093Z" fill="white"/>
<path d="M200.256 11.9648C201.136 11.6739 202.309 11.5769 203.19 11.5769C206.417 11.5769 207.688 13.1282 207.688 15.8429C207.688 17.8789 206.808 20.2058 205.048 22.2418C203.483 23.9869 201.234 25.3443 199.18 25.829C198.691 25.829 197.908 25.7321 197.322 25.5382L196.441 29.9011C196.05 31.6462 196.246 31.9371 197.811 32.131L198.593 32.2279L198.495 33.0036L191.258 33.3914L191.356 32.6157C193.312 32.2279 193.703 32.034 194.094 30.095C195.268 24.6656 196.441 19.2362 197.615 13.9038C196.637 14.1947 195.757 14.6794 195.072 15.0672L194.877 14.2916C195.757 13.7099 196.833 13.1282 197.908 12.7404L198.3 11.383C198.886 10.7044 199.864 10.0257 200.549 9.54092L200.842 9.73483L200.256 11.9648ZM197.811 23.5022C198.202 23.9869 198.984 24.5686 199.767 24.5686C202.016 24.5686 205.048 20.3997 205.048 16.4246C205.048 13.7099 203.581 12.9343 201.723 12.9343C201.234 12.9343 200.549 13.0312 199.962 13.1282L197.811 23.5022Z" fill="white"/>
<path fill-rule="evenodd" clip-rule="evenodd" d="M200.323 9.01093L201.465 9.76268L201.049 11.338C201.73 11.2342 202.423 11.1973 202.983 11.1973C204.706 11.1973 206.057 11.6097 206.969 12.5247C207.878 13.4376 208.218 14.7202 208.218 16.1728C208.218 18.4021 207.256 20.8855 205.397 23.0267L205.389 23.0365C203.73 24.8792 201.348 26.3177 199.134 26.8384L199.051 26.8579H198.965C198.614 26.8579 198.139 26.8156 197.666 26.7282L196.931 30.3605C196.834 30.7899 196.785 31.0831 196.776 31.2918C196.769 31.4326 196.783 31.4962 196.79 31.5174C196.804 31.5274 196.838 31.5463 196.905 31.57C197.059 31.6238 197.298 31.6711 197.683 31.7187L199.188 31.9044L198.925 33.9856L190.198 34.4514L190.469 32.3123L190.982 32.2109C192.014 32.0071 192.388 31.8855 192.606 31.6971C192.794 31.535 192.959 31.2334 193.156 30.2577L193.158 30.248L193.16 30.2398C194.239 25.2675 195.319 20.2939 196.398 15.3948C195.971 15.5965 195.572 15.8172 195.21 16.0216L194.377 16.4915L193.824 14.3079L194.25 14.0275C195.074 13.4849 196.069 12.9376 197.092 12.5339L197.428 11.3734L197.532 11.2543C198.153 10.5389 199.136 9.84661 199.798 9.38123C199.838 9.35288 199.877 9.32538 199.915 9.29876L200.323 9.01093ZM198.275 13.6299L198.107 14.3903C196.932 19.7091 195.757 25.1248 194.581 30.5422L194.581 30.5439C194.386 31.5014 194.159 32.2626 193.563 32.777C193.539 32.7982 193.514 32.8187 193.489 32.8387L195.976 32.706C195.815 32.5984 195.668 32.4586 195.553 32.2744C195.346 31.9424 195.309 31.5699 195.324 31.2288C195.339 30.889 195.412 30.4953 195.51 30.0567L196.552 24.9124L197.333 25.1694C197.701 25.2904 198.177 25.3702 198.573 25.4042C198.385 25.3302 198.209 25.2406 198.049 25.1448C197.633 24.8951 197.274 24.5728 197.026 24.266L196.813 24.0031L199.022 13.3944L199.002 13.4009L199.089 13.072L199.138 12.8364L199.152 12.8341L199.542 11.3563C199.242 11.5928 198.962 11.8358 198.736 12.0761L198.288 13.6252L198.275 13.6299ZM202.57 12.6395C203.223 12.7564 203.847 13.0042 204.363 13.4616C205.169 14.1756 205.572 15.2752 205.572 16.7534C205.572 18.905 204.754 21.0738 203.649 22.7048C203.622 22.7437 203.596 22.7823 203.569 22.8206C203.825 22.5864 204.07 22.3416 204.298 22.0879C205.965 20.166 206.765 18.0064 206.765 16.1728C206.765 14.9158 206.469 14.0694 205.932 13.5308C205.398 12.9941 204.495 12.6323 202.983 12.6323C202.851 12.6323 202.712 12.6346 202.57 12.6395ZM200.36 14.0948L198.38 23.601C198.501 23.7125 198.646 23.8237 198.803 23.9183C199.076 24.0817 199.337 24.1649 199.553 24.1649C199.897 24.1649 200.357 24.0002 200.891 23.5992C201.416 23.2052 201.954 22.6246 202.441 21.9067C203.418 20.4652 204.119 18.5695 204.119 16.7534C204.119 15.522 203.788 14.8797 203.392 14.5293C202.982 14.1656 202.36 13.9871 201.513 13.9871C201.207 13.9871 200.791 14.0326 200.36 14.0948Z" fill="white"/>
<path d="M215.635 23.377C216.908 21.4243 219.551 17.0308 219.649 14.6876C219.649 14.1018 219.453 13.6136 219.355 13.2231C219.159 12.5397 219.943 11.661 220.726 11.661C221.313 11.661 221.901 12.2468 221.999 13.4184C221.999 14.1994 221.607 15.1758 220.922 16.7379C219.453 19.4717 216.81 23.5723 215.243 25.9155C213.873 27.9658 212.992 29.235 211.523 30.9924C209.761 33.1403 208.586 33.9214 207.901 33.9214C207.216 33.9214 206.628 33.0427 206.628 32.2616C206.628 31.8711 206.824 31.4806 207.216 31.4806C208.782 31.3829 209.859 30.8948 211.034 29.7232C212.209 28.5516 213.09 27.4776 213.775 26.2084C213.775 23.5723 212.992 17.9095 212.6 16.2498C212.209 14.59 212.111 14.1018 211.719 14.1018C211.425 14.1018 210.838 14.59 210.055 15.664L209.467 15.0782C210.446 13.6136 211.915 11.7586 213.09 11.7586C213.873 11.7586 214.362 12.9302 214.754 15.1758C214.852 17.3237 215.243 20.3504 215.635 23.377Z" fill="white"/>
<path fill-rule="evenodd" clip-rule="evenodd" d="M220.081 12.8296C219.906 13.0289 219.915 13.1687 219.92 13.184L219.923 13.1954L219.926 13.2069C219.939 13.2601 219.959 13.3279 219.982 13.4077C220.078 13.7345 220.234 14.2632 220.234 14.8201V14.8349L220.233 14.8498C220.205 15.5333 219.997 16.3155 219.713 17.1012C219.644 17.292 219.569 17.4855 219.49 17.6808C219.721 17.276 219.936 16.8883 220.13 16.5255C220.46 15.7677 220.707 15.177 220.874 14.6864C221.037 14.206 221.106 13.8663 221.11 13.5999C221.021 12.6272 220.597 12.555 220.577 12.555C220.449 12.555 220.247 12.6396 220.081 12.8296ZM216.054 21.2906C215.769 19.0164 215.525 16.8808 215.452 15.268L215.45 15.2228L215.442 15.1783C215.249 14.0622 215.021 13.1437 214.716 12.4895C214.425 11.8631 213.935 11.227 213.118 11.227C212.649 11.227 212.213 11.4107 211.842 11.6415C211.466 11.8757 211.105 12.1913 210.771 12.5328C210.104 13.2157 209.478 14.0744 208.99 14.8093L208.668 15.295L210.239 16.8732L210.727 16.1993C211.088 15.7006 211.388 15.3599 211.615 15.1506C211.691 15.4123 211.78 15.794 211.913 16.3617C211.925 16.4129 211.937 16.4656 211.95 16.5198C212.313 18.0707 213.044 23.3693 213.077 25.9721C212.464 27.0722 211.677 28.0335 210.609 29.1063C210.078 29.6399 209.595 29.9913 209.093 30.2234C208.596 30.4529 208.045 30.5818 207.354 30.6267C206.901 30.6361 206.561 30.8814 206.361 31.1836C206.17 31.4706 206.098 31.809 206.098 32.1067C206.098 32.655 206.298 33.2082 206.605 33.6313C206.905 34.0431 207.403 34.4514 208.05 34.4514C208.627 34.4514 209.239 34.137 209.859 33.6538C210.502 33.1529 211.257 32.3892 212.135 31.3117C213.592 29.5552 214.469 28.2824 215.812 26.2593C217.343 23.9531 219.941 19.8949 221.393 17.1731L221.406 17.1482L221.417 17.1223C221.751 16.356 222.026 15.7061 222.216 15.1459C222.405 14.587 222.529 14.0694 222.529 13.5716V13.542L222.526 13.5125C222.418 12.2097 221.703 11.131 220.577 11.131C219.939 11.131 219.376 11.4785 219.016 11.8888C218.668 12.287 218.373 12.91 218.553 13.5623C218.587 13.6978 218.622 13.8195 218.655 13.9342C218.741 14.2314 218.814 14.482 218.816 14.8054C218.794 15.2726 218.643 15.8895 218.38 16.6146C218.119 17.3379 217.761 18.1266 217.363 18.9156C216.944 19.745 216.485 20.5632 216.054 21.2906ZM215.074 24.8003C214.919 25.0359 214.771 25.2597 214.632 25.4694C214.584 25.5419 214.536 25.6133 214.489 25.6838C214.412 22.884 213.701 17.7781 213.33 16.1936C213.313 16.1183 213.295 16.0448 213.279 15.9731C213.121 15.297 213 14.7821 212.875 14.4408C212.805 14.2512 212.703 14.0259 212.528 13.8464C212.318 13.631 212.055 13.5324 211.782 13.5319C211.782 13.5313 211.783 13.5307 211.784 13.5301C212.072 13.2353 212.344 13.0047 212.589 12.8517C212.84 12.6954 213.014 12.651 213.118 12.651C213.122 12.651 213.122 12.6512 213.123 12.6515C213.123 12.6515 213.123 12.6516 213.123 12.6515C213.125 12.6524 213.141 12.6592 213.168 12.6838C213.229 12.7385 213.323 12.858 213.432 13.0932C213.65 13.561 213.851 14.3091 214.038 15.3784C214.138 17.5176 214.52 20.4953 214.898 23.43L215.074 24.8003ZM210.487 31.0613C210.229 31.237 209.963 31.3887 209.685 31.5171C209.018 31.8255 208.313 31.9844 207.521 32.0426C207.518 32.062 207.516 32.0836 207.516 32.1067C207.516 32.3268 207.604 32.5899 207.75 32.7911C207.905 33.0035 208.028 33.0273 208.05 33.0273C208.143 33.0273 208.439 32.9576 208.99 32.5285C209.398 32.2113 209.895 31.7365 210.487 31.0613Z" fill="white"/>
<path d="M224.773 14.192C225.615 13.2186 227.392 11.661 229.356 11.661C231.04 11.661 232.069 12.8292 232.069 14.2894C232.069 16.2364 230.759 17.0152 228.982 18.1833L227.579 19.1568C226.083 20.1303 225.054 21.0065 225.054 22.272C225.054 23.4402 225.802 24.3163 227.018 24.3163C228.14 24.3163 229.263 23.6349 230.292 22.6614L230.759 23.3428C229.637 24.7057 227.579 25.9713 225.802 25.9713C223.557 25.9713 222.529 24.3163 222.529 22.9534C222.529 21.1038 223.838 20.1303 225.428 19.0595L227.205 17.8913C228.702 16.9178 229.637 16.0417 229.637 14.7761C229.637 13.9 229.169 13.2186 228.234 13.2186C227.112 13.2186 225.989 14.0947 225.241 14.8735L224.773 14.192Z" fill="white"/>
<path fill-rule="evenodd" clip-rule="evenodd" d="M228.217 12.6607C228.772 12.7099 229.248 12.9391 229.591 13.332C229.968 13.7642 230.122 14.3233 230.122 14.8745C230.122 15.7786 229.734 16.4991 229.139 17.1184C229.702 16.756 230.151 16.4416 230.495 16.0914C230.938 15.6399 231.186 15.1474 231.186 14.3996C231.186 13.8631 230.991 13.4083 230.661 13.0873C230.332 12.7675 229.826 12.5393 229.13 12.5393C228.824 12.5393 228.518 12.5827 228.217 12.6607ZM225.125 19.8978C223.692 20.8489 222.881 21.5911 222.881 22.8527C222.881 23.8221 223.641 25.0929 225.509 25.0929C225.908 25.0929 226.336 25.0201 226.773 24.8865C226.765 24.8866 226.756 24.8866 226.748 24.8866C225.959 24.8866 225.268 24.6102 224.775 24.102C224.286 23.5975 224.041 22.9152 224.041 22.1879C224.041 21.3443 224.408 20.6589 224.944 20.0827C225.002 20.0202 225.062 19.9586 225.125 19.8978ZM225.996 12.1146C226.871 11.5757 227.953 11.131 229.13 11.131C230.148 11.131 231.023 11.4726 231.647 12.0789C232.27 12.6839 232.599 13.5114 232.599 14.3996C232.599 15.5514 232.18 16.3886 231.504 17.0768C230.927 17.6645 230.147 18.1537 229.352 18.6522C229.279 18.6978 229.206 18.7436 229.133 18.7895L227.703 19.7402L227.694 19.7457C226.938 20.2167 226.364 20.6267 225.98 21.04C225.61 21.4373 225.453 21.7967 225.453 22.1879C225.453 22.6002 225.589 22.9153 225.791 23.1231C225.989 23.3273 226.298 23.4782 226.748 23.4782C227.625 23.4782 228.602 22.9578 229.607 22.0467L230.195 21.5138L231.455 23.2721L231.095 23.6909C230.461 24.4286 229.579 25.1228 228.616 25.6348C227.657 26.1449 226.565 26.5012 225.509 26.5012C222.805 26.5012 221.469 24.5428 221.469 22.8527C221.469 20.6146 223.178 19.4727 224.744 18.4623L224.751 18.4581L226.564 17.3166C228.114 16.3509 228.709 15.6823 228.709 14.8745C228.709 14.5708 228.624 14.3701 228.525 14.2561C228.438 14.1563 228.286 14.059 227.986 14.059C227.587 14.059 227.141 14.2109 226.678 14.4834C226.22 14.7532 225.791 15.115 225.437 15.4674L224.848 16.0552L223.557 14.2538L223.936 13.8335C224.4 13.3202 225.117 12.6556 225.996 12.1146Z" fill="white"/>
</svg>
