<svg width="35" height="35" viewBox="0 0 35 35" fill="none" xmlns="http://www.w3.org/2000/svg">
<circle cx="17.5" cy="17.5" r="17.5" fill="white" fill-opacity="0.21"/>
<path d="M25.9995 20.9791V23.3877C26.0004 23.6113 25.9545 23.8327 25.8648 24.0375C25.775 24.2424 25.6434 24.4263 25.4783 24.5775C25.3132 24.7286 25.1183 24.8437 24.906 24.9154C24.6938 24.987 24.4689 25.0136 24.2457 24.9935C21.7702 24.725 19.3923 23.8808 17.3031 22.5286C15.3594 21.2959 13.7114 19.6512 12.4763 17.7113C11.1167 15.6168 10.2706 13.2321 10.0065 10.7504C9.98643 10.5283 10.0129 10.3046 10.0842 10.0933C10.1555 9.88203 10.2701 9.6879 10.4206 9.52325C10.5712 9.35861 10.7545 9.22706 10.9589 9.13699C11.1632 9.04691 11.3841 9.00029 11.6074 9.00008H14.0209C14.4113 8.99624 14.7898 9.13422 15.0858 9.3883C15.3818 9.64237 15.5752 9.99521 15.6298 10.381C15.7317 11.1519 15.9206 11.9087 16.1929 12.6371C16.3012 12.9245 16.3246 13.2368 16.2604 13.5371C16.1963 13.8373 16.0472 14.1129 15.8309 14.3312L14.8092 15.3509C15.9545 17.3609 17.6221 19.0252 19.6361 20.1682L20.6578 19.1485C20.8765 18.9326 21.1527 18.7839 21.4535 18.7198C21.7544 18.6558 22.0673 18.6792 22.3552 18.7872C23.0851 19.059 23.8435 19.2476 24.6158 19.3492C25.0066 19.4042 25.3635 19.6007 25.6186 19.9012C25.8737 20.2017 26.0093 20.5853 25.9995 20.9791Z" stroke="white" stroke-width="1.5" stroke-linecap="round" stroke-linejoin="round"/>
</svg>
