<svg width="30" height="30" viewBox="0 0 30 30" fill="none" xmlns="http://www.w3.org/2000/svg">
<circle cx="14.9715" cy="14.9148" r="14.9148" fill="white" fill-opacity="0.21"/>
<path d="M23.8107 12.6969C23.8107 10.5227 22.0546 8.68297 19.7967 8.68297H9.59463C7.42041 8.68297 5.58069 10.4391 5.58069 12.6969V17.4635C5.58069 19.6377 7.33679 21.4774 9.59463 21.4774H19.7967C21.9709 21.4774 23.8107 19.7213 23.8107 17.4635V12.6969ZM17.7897 15.3729L13.1904 17.6307C13.0232 17.7143 12.4378 17.6307 12.4378 17.3798V12.6969C12.4378 12.5297 13.0232 12.3624 13.1904 12.446L17.5389 14.7875C17.7897 15.0384 18.0406 15.2892 17.7897 15.3729Z" fill="white"/>
</svg>
