<svg width="156" height="127" viewBox="0 0 156 127" fill="none" xmlns="http://www.w3.org/2000/svg">
<path d="M66.3585 81.0355C65.9967 91.4736 65.2194 101.9 65.2194 112.341C65.2194 115.675 65.2736 116.034 62.3507 117.522C61.764 117.82 56.2197 120.155 56.4867 117.611C56.6363 116.186 59.0787 116.09 59.8195 115.11C60.6628 113.994 59.8675 109.62 59.9883 108.277C60.6256 101.193 58.5072 94.3745 57.6258 87.3771C57.1473 83.5779 56.35 79.7473 56.1492 75.9221C56.0601 74.2243 56.3175 72.549 55.7274 70.9873" stroke="#3A3A3A" stroke-linecap="round" stroke-linejoin="round"/>
<path d="M89.9514 68.6884C88.3369 81.9447 86.7419 95.1092 84.446 108.234C84.2096 109.585 84.2562 110.928 84.2562 112.298C84.2562 113.355 83.8804 115.184 84.6569 115.937C85.4998 116.755 86.564 118.102 87.1038 119.13C88.3852 121.572 80.2801 121.566 80.0797 117.322C79.7697 110.76 81.936 104.226 81.9781 97.6273C82.0064 93.1909 81.9293 88.8332 81.2187 84.453C80.9794 82.9779 81.0811 81.2588 80.4593 79.9424" stroke="#3A3A3A" stroke-linecap="round" stroke-linejoin="round"/>
<path d="M59.6416 19.8908C56.9149 17.0439 55.51 15.0083 52.2378 17.7025C49.9604 19.5775 47.8596 19.5477 45.298 20.382C43.0522 21.1135 46.8413 24.7915 47.8503 25.2721C49.5251 26.0699 51.3929 24.8243 52.8073 26.3216" stroke="#3A3A3A" stroke-linecap="round" stroke-linejoin="round"/>
<path d="M79.7647 19.8908C82.3673 18.5788 86.3976 14.0185 89.088 17.6802C89.7232 18.5446 90.579 19.3754 91.5349 19.8015C92.4 20.1871 94.1042 19.7356 94.8677 20.3821C96.3493 21.6367 93.7078 23.3938 92.8638 24.0887C92.1038 24.7144 90.9626 24.5225 90.1005 24.8033C89.1913 25.0994 88.8776 25.9195 88.1177 26.3217" stroke="#3A3A3A" stroke-linecap="round" stroke-linejoin="round"/>
<path d="M79.0054 20.2927C75.0353 18.9718 72.0222 17.9929 67.9102 18.2831C65.0007 18.4884 62.3258 19.8908 59.2618 19.8908" stroke="#3A3A3A" stroke-linecap="round" stroke-linejoin="round"/>
<path d="M66.8556 37.9774C69.3075 37.4917 74.034 35.5384 76.643 36.459C77.7453 36.848 76.2328 37.4699 75.8836 37.5755C74.789 37.9065 66.5565 38.6759 70.4626 37.7988C74.2629 36.9454 70.0076 36.959 68.6485 37.3968C67.2898 37.8346 72.4829 37.5755 73.3102 37.5755" stroke="#3A3A3A" stroke-linecap="round" stroke-linejoin="round"/>
<path d="M1 57.2701C5.10396 54.8218 9.17118 52.6338 12.2428 48.7849C14.032 46.543 15.7448 44.031 17.8326 42.0861C20.0575 40.0135 18.6239 42.8665 18.0857 44.0957C17.1472 46.2397 16.0433 48.2966 14.9006 50.3256C14.675 50.7263 12.2225 53.7379 13.635 52.3576C14.4385 51.5725 19.1756 47.1053 18.4021 51.0625C18.0356 52.9381 16.1776 54.0533 14.7108 54.8585C13.1021 55.7415 7.97572 57.0415 9.77489 57.2701C10.9298 57.4168 15.9726 57.4516 15.3225 59.8603C14.7401 62.0182 10.1358 60.4855 8.76241 60.4855C7.91295 60.4855 10.4401 60.9134 11.1671 61.3787C12.0232 61.9267 12.1156 62.2664 11.2514 62.4951" stroke="#3A3A3A" stroke-linecap="round" stroke-linejoin="round"/>
<path d="M7.45462 62.8972C8.8698 71.2501 10.5235 79.4277 7.49681 87.6158C6.98184 89.0089 6.51235 89.8898 6.77964 91.3894C7.53177 95.6093 10.2426 99.5755 12.3905 103.112C13.2781 104.574 14.5569 108.717 16.567 108.717" stroke="#3A3A3A" stroke-linecap="round" stroke-linejoin="round"/>
<path d="M2.89832 93.8456C5.00781 98.0459 6.95273 102.642 9.94353 106.261C10.7165 107.196 12.0058 107.875 12.3904 109.097C12.5194 109.506 13.3917 111.16 13.0865 111.106C11.586 110.841 8.50009 109.975 8.59356 112.647C8.67996 115.116 17.1931 111.398 18.4653 111.129" stroke="#3A3A3A" stroke-linecap="round" stroke-linejoin="round"/>
<path d="M7.07489 81.7877C10.8706 83.531 14.6848 85.2341 18.4654 87.0127" stroke="#3A3A3A" stroke-linecap="round" stroke-linejoin="round"/>
<path d="M7.07489 87.8167C8.16894 87.9264 20.7435 88.1666 20.7435 90.6971C20.7435 91.9096 19.3322 99.3116 20.5747 95.0067C20.9369 93.752 21.4018 92.5387 21.8614 91.3224C22.1023 90.685 21.9657 92.7056 22.1779 93.3543C22.77 95.1652 23.4013 89.1885 23.4013 88.6205" stroke="#3A3A3A" stroke-linecap="round" stroke-linejoin="round"/>
<path d="M7.45453 126C11.1459 124.711 14.9705 122.969 18.845 122.383" stroke="#3A3A3A" stroke-linecap="round" stroke-linejoin="round"/>
<path d="M11.6311 117.961C16.0591 117.382 20.485 116.848 24.92 116.354" stroke="#3A3A3A" stroke-linecap="round" stroke-linejoin="round"/>
<path d="M113.766 110.325C117.057 110.084 120.338 109.923 123.638 109.923" stroke="#3A3A3A" stroke-linecap="round" stroke-linejoin="round"/>
<path d="M116.044 103.09C118.702 103.09 121.36 103.09 124.017 103.09" stroke="#3A3A3A" stroke-linecap="round" stroke-linejoin="round"/>
<path d="M92.2943 82.5916C93.498 81.6855 96.5957 78.1219 97.6943 80.5819C98.5932 82.595 98.5307 85.1731 98.2005 87.3254C97.456 92.1787 93.6136 95.4918 92.2943 100.031C92.0416 100.9 91.535 101.982 91.535 102.889C91.535 104.713 97.7303 105.62 99.0442 106.216C100.803 107.014 101.644 108.382 102.25 110.235C102.953 112.384 101.803 111.834 100.057 111.329C97.2679 110.524 96.0492 110.466 93.8341 108.561C92.8498 107.714 92.395 107.511 91.1553 107.511" stroke="#3A3A3A" stroke-linecap="round" stroke-linejoin="round"/>
<path d="M84.3209 105.501C84.28 105.467 76.3475 98.7577 76.3475 101.884" stroke="#3A3A3A" stroke-linecap="round" stroke-linejoin="round"/>
<path d="M75.9679 101.884C73.2281 103.254 70.5704 104.469 68.3742 106.707C67.54 107.558 66.7457 108.172 65.7164 108.717" stroke="#3A3A3A" stroke-linecap="round" stroke-linejoin="round"/>
<path d="M58.8822 110.325C50.1219 112.197 56.5237 107.661 60.0212 105.501" stroke="#3A3A3A" stroke-linecap="round" stroke-linejoin="round"/>
<path d="M55.465 75.7587C53.4503 76.702 50.7474 77.5197 50.5291 80.2692C50.3246 82.8448 51.2005 85.8859 52.4486 88.0621C53.615 90.0958 55.5796 91.3778 57.7431 91.8358" stroke="#3A3A3A" stroke-linecap="round" stroke-linejoin="round"/>
<path d="M85.8397 30.3409C86.438 36.2388 86.8342 41.4314 85.8397 47.2219C85.4699 49.3749 84.5187 51.4839 85.46 53.6527C88.4962 60.6479 91.1553 66.5321 91.1553 74.553" stroke="#3A3A3A" stroke-linecap="round" stroke-linejoin="round"/>
<path d="M55.8447 31.9484C55.9384 38.4979 58.5025 44.1737 58.5025 50.6604C58.5025 52.6537 57.4604 54.5168 56.6041 56.2651C55.8446 62.2517 55.8447 65.9298 55.8447 70.7573" stroke="#3A3A3A" stroke-linecap="round" stroke-linejoin="round"/>
<path d="M109.21 125.598C111.614 125.598 114.019 125.598 116.424 125.598" stroke="#3A3A3A" stroke-linecap="round" stroke-linejoin="round"/>
<path d="M115.664 122.784C117.689 122.784 119.714 122.784 121.739 122.784" stroke="#3A3A3A" stroke-linecap="round" stroke-linejoin="round"/>
<path d="M104.274 12.656C104.309 22.8844 104.653 33.1095 104.653 43.3366C104.653 43.8437 104.597 45.5066 104.253 44.2297C104.041 43.4451 106.897 46.8479 107.29 45.3909C108.18 42.0953 105.057 19.5461 113.007 23.7537C115.121 24.8731 116.15 29.0287 116.761 31.1447C117.95 35.262 118.322 39.282 118.322 43.5599C118.322 45.9942 118.604 45.858 120.853 46.1054C121.402 46.1657 125.416 47.3072 125.705 47.1326C126.829 46.4525 125.169 39.2939 125.072 38.4688C124.88 36.8436 122.712 18.9739 122.499 19.0869" stroke="#3A3A3A" stroke-linecap="round" stroke-linejoin="round"/>
<path d="M109.589 3.8136C107.918 5.3723 106.254 7.18418 104.211 8.21248C103.059 8.7921 101.769 8.73483 100.604 9.23964C99.259 9.82193 101.564 10.1999 101.911 10.2445C106.627 10.8496 111.323 10.1487 115.791 12.1648C119.546 13.8591 112.838 10.4317 115.981 12.4997C117.204 13.3045 128.745 18.5034 128.194 19.0869" stroke="#3A3A3A" stroke-linecap="round" stroke-linejoin="round"/>
<path d="M100.477 42.3987C103.026 43.8706 105.411 44.9602 108.071 46.0161" stroke="#3A3A3A" stroke-linecap="round" stroke-linejoin="round"/>
<path d="M125.156 50.4373C127.607 52.1291 129.995 53.8664 132.37 55.6623" stroke="#3A3A3A" stroke-linecap="round" stroke-linejoin="round"/>
<path d="M136.926 33.9583C137.487 44.4792 139.584 55.1931 139.584 65.7106" stroke="#3A3A3A" stroke-linecap="round" stroke-linejoin="round"/>
<path d="M142.242 65.7105C142.242 60.7291 140.8 53.0526 143.466 48.5169C145.766 44.6035 147.303 57.6638 147.347 58.3642C147.848 66.3182 147.037 74.0301 146.229 81.9217C146.138 82.8134 145.28 90.8892 145.28 86.2089" stroke="#3A3A3A" stroke-linecap="round" stroke-linejoin="round"/>
<path d="M137.306 19.0869C134.96 22.3583 132.282 25.419 129.966 28.6885C129.722 29.0322 130.762 28.8653 131.147 29.0011C132.679 29.5419 134.143 30.3053 135.64 30.9438C140.373 32.9629 145.316 34.0731 150.173 35.6553C150.867 35.8814 154.551 38.2112 154.772 37.9775" stroke="#3A3A3A" stroke-linecap="round" stroke-linejoin="round"/>
<path d="M146.798 4.21545C143.013 9.61449 139.065 14.7626 135.028 19.8907" stroke="#3A3A3A" stroke-linecap="round" stroke-linejoin="round"/>
<path d="M145.659 10.6464C144.776 11.9773 133.489 27.5053 134.648 28.7332" stroke="#3A3A3A" stroke-linecap="round" stroke-linejoin="round"/>
<path d="M149.076 18.283C147.097 22.3987 144.229 26.4897 142.622 30.7427" stroke="#3A3A3A" stroke-linecap="round" stroke-linejoin="round"/>
<path d="M111.108 9.84242C113.361 6.8699 115.639 3.92647 117.942 1" stroke="#3A3A3A" stroke-linecap="round" stroke-linejoin="round"/>
<path d="M117.183 13.8618C120.245 10.2678 123.258 6.62666 126.295 3.0097" stroke="#3A3A3A" stroke-linecap="round" stroke-linejoin="round"/>
<path d="M124.777 13.058C127.533 10.9864 130.307 8.97819 133.13 7.02911" stroke="#3A3A3A" stroke-linecap="round" stroke-linejoin="round"/>
<path d="M130.852 14.6656C132.069 13.3591 133.186 12.0468 134.269 10.6464" stroke="#3A3A3A" stroke-linecap="round" stroke-linejoin="round"/>
<path d="M65.2418 30.2404C66.1814 34.6611 65.9953 31.7275 67.3511 30.7707C67.8253 30.436 65.7498 29.6381 65.7164 30.2404C65.6817 30.8651 65.3673 33.0374 66.4019 32.7245C67.3432 32.4398 66.191 30.057 66.191 30.7428" stroke="#3A3A3A" stroke-linecap="round" stroke-linejoin="round"/>
<path d="M75.6832 30.7428C76.9569 34.0293 77.6514 32.1317 77.0806 30.0171C76.8208 29.0544 74.5496 30.394 76.1578 31.2452" stroke="#3A3A3A" stroke-linecap="round" stroke-linejoin="round"/>
<path d="M67.6149 44.4085C71.539 43.6568 73.3696 43.2561 72.9093 38.8708C72.8255 38.072 72.6672 39.2105 73.1414 40.0319C73.7365 41.0629 77.9917 44.947 79.0054 42.8008" stroke="#3A3A3A" stroke-linecap="round" stroke-linejoin="round"/>
<path d="M65.7164 61.6912C65.6341 61.8359 61.519 69.6851 62.1305 69.6851C63.0315 69.6851 64.2335 67.5172 65.1258 67.7871C65.439 67.8818 62.062 78.2575 64.6617 74.5529C66.906 71.3548 64.5471 80.1001 65.5265 80.5148C65.6864 80.5825 66.4439 78.9004 66.7711 79.5547C67.2675 80.5472 66.8554 82.6782 66.8554 83.7972" stroke="#3A3A3A" stroke-linecap="round" stroke-linejoin="round"/>
</svg>
