<svg width="15" height="14" viewBox="0 0 15 14" fill="none" xmlns="http://www.w3.org/2000/svg">
<path d="M1 6.01123C0.447715 6.01123 0 6.45895 0 7.01123C0 7.56352 0.447715 8.01123 1 8.01123V6.01123ZM12.0738 8.01123C12.6261 8.01123 13.0738 7.56352 13.0738 7.01123C13.0738 6.45895 12.6261 6.01123 12.0738 6.01123V8.01123ZM1 8.01123H12.0738V6.01123H1V8.01123Z" fill="#37ADB2"/>
<path d="M6.34989 12.0119C5.95035 12.3932 5.93555 13.0262 6.31685 13.4257C6.69814 13.8253 7.33113 13.8401 7.73068 13.4588L6.34989 12.0119ZM13.0804 6.97107L13.7708 7.6945C13.9686 7.5058 14.0804 7.24439 14.0804 6.97107C14.0804 6.69775 13.9686 6.43633 13.7708 6.24763L13.0804 6.97107ZM7.73068 0.483352C7.33113 0.102058 6.69814 0.116853 6.31685 0.516395C5.93555 0.915937 5.95035 1.54893 6.34989 1.93022L7.73068 0.483352ZM7.73068 13.4588L13.7708 7.6945L12.3901 6.24763L6.34989 12.0119L7.73068 13.4588ZM13.7708 6.24763L7.73068 0.483352L6.34989 1.93022L12.3901 7.6945L13.7708 6.24763Z" fill="#37ADB2"/>
</svg>
