<svg width="15" height="14" viewBox="0 0 15 14" fill="none" xmlns="http://www.w3.org/2000/svg">
<path d="M1 5.8042C0.447715 5.8042 0 6.25191 0 6.8042C0 7.35648 0.447715 7.8042 1 7.8042V5.8042ZM12.0738 7.8042C12.6261 7.8042 13.0738 7.35648 13.0738 6.8042C13.0738 6.25191 12.6261 5.8042 12.0738 5.8042V7.8042ZM1 7.8042H12.0738V5.8042H1V7.8042Z" fill="#3A3A3A"/>
<path d="M6.35013 11.8051C5.95059 12.1864 5.9358 12.8194 6.31709 13.219C6.69839 13.6185 7.33138 13.6333 7.73092 13.252L6.35013 11.8051ZM13.0807 6.76428L13.7711 7.48772C13.9688 7.29902 14.0807 7.03761 14.0807 6.76428C14.0807 6.49096 13.9688 6.22955 13.7711 6.04085L13.0807 6.76428ZM7.73092 0.276565C7.33138 -0.104729 6.69839 -0.0899343 6.31709 0.309608C5.9358 0.709149 5.95059 1.34214 6.35013 1.72343L7.73092 0.276565ZM7.73092 13.252L13.7711 7.48772L12.3903 6.04085L6.35013 11.8051L7.73092 13.252ZM13.7711 6.04085L7.73092 0.276565L6.35013 1.72343L12.3903 7.48772L13.7711 6.04085Z" fill="#3A3A3A"/>
</svg>
