<svg width="15" height="14" viewBox="0 0 15 14" fill="none" xmlns="http://www.w3.org/2000/svg">
<path d="M1 6.01147C0.447715 6.01147 0 6.45919 0 7.01147C0 7.56376 0.447715 8.01147 1 8.01147V6.01147ZM12.0738 8.01147C12.6261 8.01147 13.0738 7.56376 13.0738 7.01147C13.0738 6.45919 12.6261 6.01147 12.0738 6.01147V8.01147ZM1 8.01147H12.0738V6.01147H1V8.01147Z" fill="white"/>
<path d="M6.34995 12.0124C5.95041 12.3937 5.93562 13.0267 6.31691 13.4262C6.6982 13.8258 7.33119 13.8406 7.73074 13.4593L6.34995 12.0124ZM13.0805 6.97156L13.7709 7.69499C13.9686 7.50629 14.0805 7.24488 14.0805 6.97156C14.0805 6.69823 13.9686 6.43682 13.7709 6.24812L13.0805 6.97156ZM7.73074 0.48384C7.33119 0.102547 6.6982 0.117341 6.31691 0.516883C5.93562 0.916425 5.95041 1.54942 6.34995 1.93071L7.73074 0.48384ZM7.73074 13.4593L13.7709 7.69499L12.3901 6.24812L6.34995 12.0124L7.73074 13.4593ZM13.7709 6.24812L7.73074 0.48384L6.34995 1.93071L12.3901 7.69499L13.7709 6.24812Z" fill="white"/>
</svg>
