<svg width="15" height="14" viewBox="0 0 15 14" fill="none" xmlns="http://www.w3.org/2000/svg">
<path d="M1 5.8042C0.447715 5.8042 0 6.25191 0 6.8042C0 7.35648 0.447715 7.8042 1 7.8042V5.8042ZM12.0738 7.8042C12.6261 7.8042 13.0738 7.35648 13.0738 6.8042C13.0738 6.25191 12.6261 5.8042 12.0738 5.8042V7.8042ZM1 7.8042H12.0738V5.8042H1V7.8042Z" fill="#FFCD40"/>
<path d="M6.34995 11.8051C5.95041 12.1864 5.93562 12.8194 6.31691 13.219C6.6982 13.6185 7.33119 13.6333 7.73074 13.252L6.34995 11.8051ZM13.0805 6.76428L13.7709 7.48772C13.9686 7.29902 14.0805 7.03761 14.0805 6.76428C14.0805 6.49096 13.9686 6.22955 13.7709 6.04085L13.0805 6.76428ZM7.73074 0.276565C7.33119 -0.104729 6.6982 -0.0899343 6.31691 0.309608C5.93562 0.709149 5.95041 1.34214 6.34995 1.72343L7.73074 0.276565ZM7.73074 13.252L13.7709 7.48772L12.3901 6.04085L6.34995 11.8051L7.73074 13.252ZM13.7709 6.04085L7.73074 0.276565L6.34995 1.72343L12.3901 7.48772L13.7709 6.04085Z" fill="#FFCD40"/>
</svg>
