<svg width="14" height="14" viewBox="0 0 14 14" fill="none" xmlns="http://www.w3.org/2000/svg">
  <path d="M1 6C0.447715 6 0 6.44772 0 7C0 7.55228 0.447715 8 1 8V6ZM12 8C12.5523 8 13 7.55228 13 7C13 6.44772 12.5523 6 12 6V8ZM1 8H12V6H1V8Z" fill="white"/>
  <path d="M6.29896 12.0838C5.90511 12.4709 5.89971 13.1041 6.28688 13.4979C6.67405 13.8918 7.3072 13.8972 7.70104 13.51L6.29896 12.0838ZM13 6.8985L13.701 7.61162C13.8923 7.42361 14 7.16668 14 6.8985C14 6.63032 13.8923 6.37338 13.701 6.18538L13 6.8985ZM7.70104 0.287002C7.3072 -0.100173 6.67405 -0.0947656 6.28688 0.29908C5.8997 0.692925 5.90511 1.32607 6.29896 1.71324L7.70104 0.287002ZM7.70104 13.51L13.701 7.61162L12.299 6.18538L6.29896 12.0838L7.70104 13.51ZM13.701 6.18538L7.70104 0.287002L6.29896 1.71324L12.299 7.61162L13.701 6.18538Z" fill="white"/>
</svg>
