<svg width="1920" height="845" viewBox="0 0 1920 845" fill="none" xmlns="http://www.w3.org/2000/svg">
  <path d="M603.798 539.34C276.149 430.617 -44.8609 435.902 -164.41 452.135L-188.759 590.298C211.947 618.614 931.447 648.063 603.798 539.34Z" fill="#7DDEC7" fill-opacity="0.25"/>
  <path d="M597 547C361.4 547 97.5002 514.333 -4.99982 498L-56.9998 845L1971.83 805.5C1970.5 785 1957 520 1919 482C1638.5 482 891.5 547 597 547Z" fill="white"/>
  <path opacity="0.25" d="M1008.09 638.532C1162 573.531 1587 438.432 2055.68 418.039" stroke="white"/>
  <path opacity="0.1" d="M1738.64 354.5C1766.14 146 1722.41 -2.01667 1507.14 0.499867C1291.87 3.01641 1000.88 303.973 1111.14 460C1221.4 616.026 1712.17 555.231 1738.64 354.5Z" fill="white"/>
  <path opacity="0.1" d="M1508.81 632.068C1691.63 554.719 1796.34 455.22 1708.88 304.644C1621.42 154.068 1257.85 88.5797 1172.93 238.691C1088.01 388.803 1332.79 706.536 1508.81 632.068Z" fill="white"/>
  <path opacity="0.25" d="M-175.441 406.506C-12.5671 374.987 472.919 537.24 652.284 700.426" stroke="white"/>
</svg>
