<svg width="19" height="19" viewBox="0 0 19 19" fill="none" xmlns="http://www.w3.org/2000/svg">
<path fill-rule="evenodd" clip-rule="evenodd" d="M9.21053 17.9519C9.21053 17.9519 16.1184 13.3466 16.1184 7.97381C16.1184 6.14173 15.3906 4.38467 14.0951 3.08919C12.7997 1.79371 11.0426 1.06592 9.21053 1.06592C7.37844 1.06592 5.62139 1.79371 4.32591 3.08919C3.03043 4.38467 2.30264 6.14173 2.30264 7.97381C2.30264 13.3466 9.21053 17.9519 9.21053 17.9519ZM12.2807 7.97381C12.2807 9.66942 10.9061 11.044 9.21053 11.044C7.51492 11.044 6.14035 9.66942 6.14035 7.97381C6.14035 6.2782 7.51492 4.90364 9.21053 4.90364C10.9061 4.90364 12.2807 6.2782 12.2807 7.97381Z" fill="black"/>
</svg>
