<svg width="13" height="13" viewBox="0 0 13 13" fill="none" xmlns="http://www.w3.org/2000/svg">
	<path fill-rule="evenodd" clip-rule="evenodd" d="M6.5 12.4584C6.5 12.4584 11.375 9.20841 11.375 5.41675C11.375 4.12382 10.8614 2.88384 9.94715 1.9696C9.03291 1.05536 7.79293 0.541748 6.5 0.541748C5.20707 0.541748 3.96709 1.05536 3.05285 1.9696C2.13861 2.88384 1.625 4.12382 1.625 5.41675C1.625 9.20841 6.5 12.4584 6.5 12.4584ZM8.66667 5.41675C8.66667 6.61337 7.69662 7.58342 6.5 7.58342C5.30338 7.58342 4.33333 6.61337 4.33333 5.41675C4.33333 4.22013 5.30338 3.25008 6.5 3.25008C7.69662 3.25008 8.66667 4.22013 8.66667 5.41675Z" fill="white"/>
</svg>
