<svg width="33" height="30" viewBox="0 0 33 30" fill="none" xmlns="http://www.w3.org/2000/svg">
  <path d="M28.3514 27.8807C28.3514 29.0676 27.41 30.0001 26.2119 30.0001H4.81765C3.61957 30.0001 2.67822 29.0676 2.67822 27.8807V10.5017C2.67822 9.31486 3.61957 8.38232 4.81765 8.38232H26.2119C27.41 8.38232 28.3514 9.31486 28.3514 10.5017V27.8807Z" fill="white"/>
  <path d="M18.2532 1.13404L31.6889 9.18772C32.4163 9.6116 32.1167 10.9256 31.261 10.9256H0.838288C-0.0174837 10.9256 -0.317004 9.6116 0.410402 9.18772L13.6749 1.2612C15.0869 0.455833 16.8412 0.328669 18.2532 1.13404Z" fill="white"/>
  <path d="M16.7556 12.6884C16.4989 14.3839 17.4403 15.7403 18.7667 15.9523C20.0931 16.1642 21.2484 15.1469 21.5052 13.4514C21.7619 11.7559 20.9061 9.5941 19.6225 9.50933C18.1249 9.33978 17.0124 10.9929 16.7556 12.6884Z" fill="#272727"/>
  <path d="M21.5479 16.7576C21.0345 17.902 21.5907 18.8769 22.5749 19.0889C23.559 19.3008 24.7143 18.5802 24.971 17.351C25.2277 16.1217 25.0138 14.9349 24.1152 14.6806C23.2595 14.4686 22.0186 15.6979 21.5479 16.7576Z" fill="#272727"/>
  <path d="M10.6369 16.7576C11.1503 17.902 10.5941 18.8769 9.60994 19.0889C8.6258 19.3008 7.47051 18.5802 7.21378 17.351C6.95705 16.1217 7.17099 14.9349 8.06955 14.6806C8.92532 14.4686 10.1662 15.6979 10.6369 16.7576Z" fill="#272727"/>
  <path d="M15.7715 12.6884C16.0283 14.3839 15.0869 15.7403 13.7605 15.9523C12.434 16.1642 11.2787 15.1469 11.022 13.4514C10.7653 11.7559 11.621 9.5941 12.9047 9.50933C14.4451 9.33978 15.5576 10.9929 15.7715 12.6884Z" fill="#272727"/>
  <path d="M16.5416 17.1392C19.8364 17.1392 24.7143 23.7517 23.4306 25.1505C22.147 26.5493 18.2532 24.4723 16.6272 24.4723C15.0013 24.4723 11.7493 26.634 9.82384 25.4472C7.89835 24.2603 13.1186 17.1392 16.5416 17.1392Z" fill="#272727"/>
</svg>
